<?xml version="1.0" encoding="UTF-8" standalone="no"?>
<svg width="417px" height="250px" viewBox="0 0 417 250" version="1.1" xmlns="http://www.w3.org/2000/svg" xmlns:xlink="http://www.w3.org/1999/xlink">
    <!-- Generator: Sketch 40 (33762) - http://www.bohemiancoding.com/sketch -->
    <title>Group 6</title>
    <desc>Created with Sketch.</desc>
    <defs>
        <rect id="path-1" x="21" y="94" width="112" height="99" rx="4"></rect>
        <mask id="mask-2" maskContentUnits="userSpaceOnUse" maskUnits="objectBoundingBox" x="-1" y="-1" width="114" height="101">
            <rect x="20" y="93" width="114" height="101" fill="white"></rect>
            <use xlink:href="#path-1" fill="black"></use>
        </mask>
        <rect id="path-3" x="153" y="94" width="112" height="99" rx="4"></rect>
        <mask id="mask-4" maskContentUnits="userSpaceOnUse" maskUnits="objectBoundingBox" x="-1" y="-1" width="114" height="101">
            <rect x="152" y="93" width="114" height="101" fill="white"></rect>
            <use xlink:href="#path-3" fill="black"></use>
        </mask>
        <rect id="path-5" x="285" y="94" width="112" height="99" rx="4"></rect>
        <mask id="mask-6" maskContentUnits="userSpaceOnUse" maskUnits="objectBoundingBox" x="-1" y="-1" width="114" height="101">
            <rect x="284" y="93" width="114" height="101" fill="white"></rect>
            <use xlink:href="#path-5" fill="black"></use>
        </mask>
    </defs>
    <g id="Invoicing" stroke="none" stroke-width="1" fill="none" fill-rule="evenodd">
        <g id="Paths" transform="translate(-762.000000, -1381.000000)">
            <g id="Group-6" transform="translate(762.000000, 1381.000000)">
                <g id="Group">
                    <rect id="Rectangle-7" fill="#FFFFFF" x="0.423828125" y="0.8671875" width="415.699219" height="249"></rect>
                    <g id="Rectangle-4-Copy">
                        <use fill="#FFFFFF" fill-rule="evenodd" xlink:href="#path-1"></use>
                        <use stroke="#D4DAE0" mask="url(#mask-2)" stroke-width="2" xlink:href="#path-1"></use>
                    </g>
                    <g id="Rectangle-4-Copy-2">
                        <use fill="#FFFFFF" fill-rule="evenodd" xlink:href="#path-3"></use>
                        <use stroke="#D4DAE0" mask="url(#mask-4)" stroke-width="2" xlink:href="#path-3"></use>
                    </g>
                    <g id="Rectangle-4-Copy-3">
                        <use fill="#FFFFFF" fill-rule="evenodd" xlink:href="#path-5"></use>
                        <use stroke="#D4DAE0" mask="url(#mask-6)" stroke-width="2" stroke-dasharray="2,2" xlink:href="#path-5"></use>
                    </g>
                    <path d="M91.1955,57.718 L91.1955,67 L98.2415,67 L98.2415,65.284 L93.2365,65.284 L93.2365,63.009 L97.7345,63.009 L97.7345,61.423 L93.2365,61.423 L93.2365,59.434 L98.1375,59.434 L98.1375,57.718 L91.1955,57.718 Z M99.4765,60.279 L99.4765,67 L101.3225,67 L101.3225,63.1 C101.3225,62.770665 101.370166,62.5041677 101.4655,62.3005 C101.560834,62.0968323 101.675666,61.9408339 101.81,61.8325 C101.944334,61.7241661 102.082999,61.6505002 102.226,61.6115 C102.369001,61.5724998 102.483833,61.553 102.5705,61.553 C102.865168,61.553 103.088333,61.6028328 103.24,61.7025 C103.391667,61.8021672 103.5,61.9343325 103.565,62.099 C103.63,62.2636675 103.666833,62.443499 103.6755,62.6385 C103.684167,62.833501 103.6885,63.0306657 103.6885,63.23 L103.6885,67 L105.5345,67 L105.5345,63.256 C105.5345,63.047999 105.549667,62.8421677 105.58,62.6385 C105.610333,62.4348323 105.671,62.2528341 105.762,62.0925 C105.853,61.9321659 105.978666,61.8021672 106.139,61.7025 C106.299334,61.6028328 106.509499,61.553 106.7695,61.553 C107.029501,61.553 107.235333,61.5963329 107.387,61.683 C107.538667,61.7696671 107.6535,61.8866659 107.7315,62.034 C107.8095,62.1813341 107.857167,62.3546657 107.8745,62.554 C107.891833,62.7533343 107.9005,62.9656655 107.9005,63.191 L107.9005,67 L109.7465,67 L109.7465,62.502 C109.7465,62.0686645 109.685834,61.6981682 109.5645,61.3905 C109.443166,61.0828318 109.274168,60.8336676 109.0575,60.643 C108.840832,60.4523324 108.580835,60.3136671 108.2775,60.227 C107.974165,60.1403329 107.644835,60.097 107.2895,60.097 C106.821498,60.097 106.416335,60.2096655 106.074,60.435 C105.731665,60.6603345 105.460834,60.9203319 105.2615,61.215 C105.079499,60.7989979 104.813002,60.5086675 104.462,60.344 C104.110998,60.1793325 103.723169,60.097 103.2985,60.097 C102.856498,60.097 102.464335,60.1923324 102.122,60.383 C101.779665,60.5736676 101.487168,60.8423316 101.2445,61.189 L101.2185,61.189 L101.2185,60.279 L99.4765,60.279 Z M111.1245,62.346 C111.1505,61.9126645 111.258832,61.5530014 111.4495,61.267 C111.640168,60.9809986 111.882832,60.7513342 112.1775,60.578 C112.472168,60.4046658 112.803665,60.281167 113.172,60.2075 C113.540335,60.133833 113.910831,60.097 114.2835,60.097 C114.621502,60.097 114.963832,60.1208331 115.3105,60.1685 C115.657168,60.2161669 115.973499,60.3093326 116.2595,60.448 C116.545501,60.5866674 116.779499,60.7794988 116.9615,61.0265 C117.143501,61.2735012 117.2345,61.6006646 117.2345,62.008 L117.2345,65.505 C117.2345,65.8083348 117.251833,66.0986653 117.2865,66.376 C117.321167,66.6533347 117.381833,66.8613326 117.4685,67 L115.5965,67 C115.561833,66.8959995 115.533667,66.7898339 115.512,66.6815 C115.490333,66.5731661 115.475167,66.4626672 115.4665,66.35 C115.171832,66.6533348 114.825169,66.8656661 114.4265,66.987 C114.027831,67.1083339 113.620502,67.169 113.2045,67.169 C112.883832,67.169 112.584835,67.1300004 112.3075,67.052 C112.030165,66.9739996 111.787501,66.8526675 111.5795,66.688 C111.371499,66.5233325 111.209001,66.3153346 111.092,66.064 C110.974999,65.8126654 110.9165,65.5136684 110.9165,65.167 C110.9165,64.7856648 110.983666,64.4715012 111.118,64.2245 C111.252334,63.9774988 111.425666,63.7803341 111.638,63.633 C111.850334,63.4856659 112.092999,63.375167 112.366,63.3015 C112.639001,63.227833 112.914165,63.1693335 113.1915,63.126 C113.468835,63.0826665 113.741832,63.0480001 114.0105,63.022 C114.279168,62.9959999 114.517499,62.9570003 114.7255,62.905 C114.933501,62.8529997 115.098166,62.7771672 115.2195,62.6775 C115.340834,62.5778328 115.397167,62.4326676 115.3885,62.242 C115.3885,62.0426657 115.356,61.8845006 115.291,61.7675 C115.226,61.6504994 115.139334,61.5595003 115.031,61.4945 C114.922666,61.4294997 114.797001,61.3861668 114.654,61.3645 C114.510999,61.3428332 114.357167,61.332 114.1925,61.332 C113.828498,61.332 113.542501,61.4099992 113.3345,61.566 C113.126499,61.7220008 113.005167,61.9819982 112.9705,62.346 L111.1245,62.346 Z M115.3885,63.711 C115.3105,63.7803337 115.213001,63.8344998 115.096,63.8735 C114.978999,63.9125002 114.853334,63.9449999 114.719,63.971 C114.584666,63.9970001 114.443834,64.0186666 114.2965,64.036 C114.149166,64.0533334 114.001834,64.0749999 113.8545,64.101 C113.715833,64.1270001 113.579334,64.1616664 113.445,64.205 C113.310666,64.2483336 113.193667,64.306833 113.094,64.3805 C112.994333,64.454167 112.914167,64.5473328 112.8535,64.66 C112.792833,64.7726672 112.7625,64.9156658 112.7625,65.089 C112.7625,65.2536675 112.792833,65.3923328 112.8535,65.505 C112.914167,65.6176672 112.996499,65.7064997 113.1005,65.7715 C113.204501,65.8365003 113.325833,65.8819999 113.4645,65.908 C113.603167,65.9340001 113.746166,65.947 113.8935,65.947 C114.257502,65.947 114.539166,65.8863339 114.7385,65.765 C114.937834,65.6436661 115.085166,65.4985008 115.1805,65.3295 C115.275834,65.1604992 115.334333,64.9893342 115.356,64.816 C115.377667,64.6426658 115.3885,64.5040005 115.3885,64.4 L115.3885,63.711 Z M120.5625,59.239 L120.5625,57.718 L118.7165,57.718 L118.7165,59.239 L120.5625,59.239 Z M118.7165,60.279 L118.7165,67 L120.5625,67 L120.5625,60.279 L118.7165,60.279 Z M122.0705,57.718 L122.0705,67 L123.9165,67 L123.9165,57.718 L122.0705,57.718 Z M133.5625,62.645 L135.3695,62.645 C135.3435,62.2116645 135.239501,61.8368349 135.0575,61.5205 C134.875499,61.2041651 134.639335,60.9398344 134.349,60.7275 C134.058665,60.5151656 133.729335,60.3570005 133.361,60.253 C132.992665,60.1489995 132.609169,60.097 132.2105,60.097 C131.664497,60.097 131.179169,60.1879991 130.7545,60.37 C130.329831,60.5520009 129.970168,60.8054984 129.6755,61.1305 C129.380832,61.4555016 129.157667,61.8411644 129.006,62.2875 C128.854333,62.7338356 128.7785,63.2169974 128.7785,63.737 C128.7785,64.2396692 128.860833,64.7011646 129.0255,65.1215 C129.190167,65.5418354 129.419832,65.9036652 129.7145,66.207 C130.009168,66.5103348 130.366665,66.7464992 130.787,66.9155 C131.207335,67.0845008 131.668831,67.169 132.1715,67.169 C133.064171,67.169 133.796497,66.9350023 134.3685,66.467 C134.940503,65.9989977 135.287166,65.3186711 135.4085,64.426 L133.6275,64.426 C133.566833,64.8420021 133.417335,65.1734988 133.179,65.4205 C132.940665,65.6675012 132.600502,65.791 132.1585,65.791 C131.872499,65.791 131.629834,65.7260007 131.4305,65.596 C131.231166,65.4659993 131.073001,65.2991677 130.956,65.0955 C130.838999,64.8918323 130.7545,64.6643346 130.7025,64.413 C130.6505,64.1616654 130.6245,63.9146679 130.6245,63.672 C130.6245,63.4206654 130.6505,63.1671679 130.7025,62.9115 C130.7545,62.6558321 130.843333,62.4218344 130.969,62.2095 C131.094667,61.9971656 131.257166,61.823834 131.4565,61.6895 C131.655834,61.555166 131.902832,61.488 132.1975,61.488 C132.986171,61.488 133.441166,61.8736628 133.5625,62.645 L133.5625,62.645 Z M142.7535,67 L142.7535,60.279 L140.9075,60.279 L140.9075,63.802 C140.9075,64.4866701 140.794834,64.9784985 140.5695,65.2775 C140.344166,65.5765015 139.980169,65.726 139.4775,65.726 C139.035498,65.726 138.727834,65.5895014 138.5545,65.3165 C138.381166,65.0434986 138.2945,64.6296694 138.2945,64.075 L138.2945,60.279 L136.4485,60.279 L136.4485,64.413 C136.4485,64.8290021 136.485333,65.208165 136.559,65.5505 C136.632667,65.892835 136.760499,66.1831655 136.9425,66.4215 C137.124501,66.6598345 137.373665,66.8439994 137.69,66.974 C138.006335,67.1040006 138.411498,67.169 138.9055,67.169 C139.295502,67.169 139.676831,67.0823342 140.0495,66.909 C140.422169,66.7356658 140.725499,66.454002 140.9595,66.064 L140.9985,66.064 L140.9985,67 L142.7535,67 Z M145.5875,64.816 L143.8325,64.816 C143.849833,65.2666689 143.951666,65.6414985 144.138,65.9405 C144.324334,66.2395015 144.562665,66.4799991 144.853,66.662 C145.143335,66.8440009 145.474831,66.9739996 145.8475,67.052 C146.220169,67.1300004 146.601498,67.169 146.9915,67.169 C147.372835,67.169 147.747665,67.132167 148.116,67.0585 C148.484335,66.984833 148.811499,66.8570009 149.0975,66.675 C149.383501,66.4929991 149.615332,66.2525015 149.793,65.9535 C149.970668,65.6544985 150.0595,65.2840022 150.0595,64.842 C150.0595,64.5299984 149.998834,64.2678344 149.8775,64.0555 C149.756166,63.8431656 149.595834,63.6655007 149.3965,63.5225 C149.197166,63.3794993 148.969668,63.2646671 148.714,63.178 C148.458332,63.0913329 148.196168,63.017667 147.9275,62.957 C147.667499,62.896333 147.411835,62.8400003 147.1605,62.788 C146.909165,62.7359997 146.686001,62.6775003 146.491,62.6125 C146.295999,62.5474997 146.137834,62.4630005 146.0165,62.359 C145.895166,62.2549995 145.8345,62.1206675 145.8345,61.956 C145.8345,61.8173326 145.869166,61.7068337 145.9385,61.6245 C146.007834,61.5421663 146.092333,61.4793336 146.192,61.436 C146.291667,61.3926664 146.402166,61.3645001 146.5235,61.3515 C146.644834,61.3384999 146.757499,61.332 146.8615,61.332 C147.190835,61.332 147.476832,61.3948327 147.7195,61.5205 C147.962168,61.6461673 148.0965,61.8866649 148.1225,62.242 L149.8775,62.242 C149.842833,61.8259979 149.736668,61.4815014 149.559,61.2085 C149.381332,60.9354986 149.158168,60.7166675 148.8895,60.552 C148.620832,60.3873325 148.315335,60.2703337 147.973,60.201 C147.630665,60.1316663 147.277502,60.097 146.9135,60.097 C146.549498,60.097 146.194168,60.1294997 145.8475,60.1945 C145.500832,60.2595003 145.188835,60.3721659 144.9115,60.5325 C144.634165,60.6928341 144.411001,60.9116653 144.242,61.189 C144.072999,61.4663347 143.9885,61.8216645 143.9885,62.255 C143.9885,62.5496681 144.049166,62.7988323 144.1705,63.0025 C144.291834,63.2061677 144.452166,63.375166 144.6515,63.5095 C144.850834,63.643834 145.078332,63.7521663 145.334,63.8345 C145.589668,63.9168337 145.851832,63.988333 146.1205,64.049 C146.77917,64.1876674 147.292665,64.3263326 147.661,64.465 C148.029335,64.6036674 148.2135,64.8116653 148.2135,65.089 C148.2135,65.2536675 148.1745,65.3901661 148.0965,65.4985 C148.0185,65.6068339 147.921001,65.6934997 147.804,65.7585 C147.686999,65.8235003 147.557001,65.8711665 147.414,65.9015 C147.270999,65.9318335 147.134501,65.947 147.0045,65.947 C146.822499,65.947 146.647001,65.9253336 146.478,65.882 C146.308999,65.8386664 146.159501,65.7715005 146.0295,65.6805 C145.899499,65.5894995 145.793334,65.4725007 145.711,65.3295 C145.628666,65.1864993 145.5875,65.0153343 145.5875,64.816 L145.5875,64.816 Z M153.4785,60.279 L153.4785,58.264 L151.6325,58.264 L151.6325,60.279 L150.5145,60.279 L150.5145,61.514 L151.6325,61.514 L151.6325,65.479 C151.6325,65.8170017 151.688833,66.089999 151.8015,66.298 C151.914167,66.506001 152.067999,66.6663328 152.263,66.779 C152.458001,66.8916672 152.683332,66.9674998 152.939,67.0065 C153.194668,67.0455002 153.465499,67.065 153.7515,67.065 C153.933501,67.065 154.119832,67.0606667 154.3105,67.052 C154.501168,67.0433333 154.674499,67.0260001 154.8305,67 L154.8305,65.57 C154.743833,65.5873334 154.652834,65.6003333 154.5575,65.609 C154.462166,65.6176667 154.362501,65.622 154.2585,65.622 C153.946498,65.622 153.738501,65.5700005 153.6345,65.466 C153.530499,65.3619995 153.4785,65.1540016 153.4785,64.842 L153.4785,61.514 L154.8305,61.514 L154.8305,60.279 L153.4785,60.279 Z M157.3525,63.646 C157.3525,63.377332 157.3785,63.1130013 157.4305,62.853 C157.4825,62.5929987 157.571333,62.3633343 157.697,62.164 C157.822667,61.9646657 157.989499,61.8021673 158.1975,61.6765 C158.405501,61.5508327 158.665498,61.488 158.9775,61.488 C159.289502,61.488 159.551666,61.5508327 159.764,61.6765 C159.976334,61.8021673 160.145333,61.9646657 160.271,62.164 C160.396667,62.3633343 160.4855,62.5929987 160.5375,62.853 C160.5895,63.1130013 160.6155,63.377332 160.6155,63.646 C160.6155,63.914668 160.5895,64.1768321 160.5375,64.4325 C160.4855,64.6881679 160.396667,64.9178323 160.271,65.1215 C160.145333,65.3251677 159.976334,65.4876661 159.764,65.609 C159.551666,65.7303339 159.289502,65.791 158.9775,65.791 C158.665498,65.791 158.405501,65.7303339 158.1975,65.609 C157.989499,65.4876661 157.822667,65.3251677 157.697,65.1215 C157.571333,64.9178323 157.4825,64.6881679 157.4305,64.4325 C157.3785,64.1768321 157.3525,63.914668 157.3525,63.646 L157.3525,63.646 Z M155.5065,63.646 C155.5065,64.183336 155.588833,64.6686645 155.7535,65.102 C155.918167,65.5353355 156.152165,65.9058318 156.4555,66.2135 C156.758835,66.5211682 157.122831,66.7573325 157.5475,66.922 C157.972169,67.0866675 158.448831,67.169 158.9775,67.169 C159.506169,67.169 159.984998,67.0866675 160.414,66.922 C160.843002,66.7573325 161.209165,66.5211682 161.5125,66.2135 C161.815835,65.9058318 162.049833,65.5353355 162.2145,65.102 C162.379167,64.6686645 162.4615,64.183336 162.4615,63.646 C162.4615,63.108664 162.379167,62.6211689 162.2145,62.1835 C162.049833,61.7458311 161.815835,61.3731682 161.5125,61.0655 C161.209165,60.7578318 160.843002,60.5195008 160.414,60.3505 C159.984998,60.1814992 159.506169,60.097 158.9775,60.097 C158.448831,60.097 157.972169,60.1814992 157.5475,60.3505 C157.122831,60.5195008 156.758835,60.7578318 156.4555,61.0655 C156.152165,61.3731682 155.918167,61.7458311 155.7535,62.1835 C155.588833,62.6211689 155.5065,63.108664 155.5065,63.646 L155.5065,63.646 Z M163.7095,60.279 L163.7095,67 L165.5555,67 L165.5555,63.1 C165.5555,62.770665 165.603166,62.5041677 165.6985,62.3005 C165.793834,62.0968323 165.908666,61.9408339 166.043,61.8325 C166.177334,61.7241661 166.315999,61.6505002 166.459,61.6115 C166.602001,61.5724998 166.716833,61.553 166.8035,61.553 C167.098168,61.553 167.321333,61.6028328 167.473,61.7025 C167.624667,61.8021672 167.733,61.9343325 167.798,62.099 C167.863,62.2636675 167.899833,62.443499 167.9085,62.6385 C167.917167,62.833501 167.9215,63.0306657 167.9215,63.23 L167.9215,67 L169.7675,67 L169.7675,63.256 C169.7675,63.047999 169.782667,62.8421677 169.813,62.6385 C169.843333,62.4348323 169.904,62.2528341 169.995,62.0925 C170.086,61.9321659 170.211666,61.8021672 170.372,61.7025 C170.532334,61.6028328 170.742499,61.553 171.0025,61.553 C171.262501,61.553 171.468333,61.5963329 171.62,61.683 C171.771667,61.7696671 171.8865,61.8866659 171.9645,62.034 C172.0425,62.1813341 172.090167,62.3546657 172.1075,62.554 C172.124833,62.7533343 172.1335,62.9656655 172.1335,63.191 L172.1335,67 L173.9795,67 L173.9795,62.502 C173.9795,62.0686645 173.918834,61.6981682 173.7975,61.3905 C173.676166,61.0828318 173.507168,60.8336676 173.2905,60.643 C173.073832,60.4523324 172.813835,60.3136671 172.5105,60.227 C172.207165,60.1403329 171.877835,60.097 171.5225,60.097 C171.054498,60.097 170.649335,60.2096655 170.307,60.435 C169.964665,60.6603345 169.693834,60.9203319 169.4945,61.215 C169.312499,60.7989979 169.046002,60.5086675 168.695,60.344 C168.343998,60.1793325 167.956169,60.097 167.5315,60.097 C167.089498,60.097 166.697335,60.1923324 166.355,60.383 C166.012665,60.5736676 165.720168,60.8423316 165.4775,61.189 L165.4515,61.189 L165.4515,60.279 L163.7095,60.279 Z M179.9595,62.918 L176.9565,62.918 C176.965167,62.7879994 176.993333,62.6406675 177.041,62.476 C177.088667,62.3113325 177.170999,62.1553341 177.288,62.008 C177.405001,61.8606659 177.560999,61.7371672 177.756,61.6375 C177.951001,61.5378328 178.195832,61.488 178.4905,61.488 C178.941169,61.488 179.276999,61.6093321 179.498,61.852 C179.719001,62.0946679 179.872833,62.4499977 179.9595,62.918 L179.9595,62.918 Z M176.9565,64.088 L181.8055,64.088 C181.840167,63.5679974 181.796834,63.069669 181.6755,62.593 C181.554166,62.116331 181.357001,61.6916685 181.084,61.319 C180.810999,60.9463315 180.462169,60.6495011 180.0375,60.4285 C179.612831,60.2074989 179.114503,60.097 178.5425,60.097 C178.031164,60.097 177.565335,60.1879991 177.145,60.37 C176.724665,60.5520009 176.362835,60.8011651 176.0595,61.1175 C175.756165,61.4338349 175.522167,61.8086645 175.3575,62.242 C175.192833,62.6753355 175.1105,63.1433308 175.1105,63.646 C175.1105,64.1660026 175.190666,64.6426645 175.351,65.076 C175.511334,65.5093355 175.738832,65.8819984 176.0335,66.194 C176.328168,66.5060016 176.687831,66.7464992 177.1125,66.9155 C177.537169,67.0845008 178.013831,67.169 178.5425,67.169 C179.30517,67.169 179.955164,66.9956684 180.4925,66.649 C181.029836,66.3023316 181.428499,65.726004 181.6885,64.92 L180.0635,64.92 C180.002833,65.128001 179.838168,65.3251657 179.5695,65.5115 C179.300832,65.6978343 178.980169,65.791 178.6075,65.791 C178.087497,65.791 177.688835,65.656668 177.4115,65.388 C177.134165,65.119332 176.9825,64.686003 176.9565,64.088 L176.9565,64.088 Z M182.8975,60.279 L182.8975,67 L184.7435,67 L184.7435,63.971 C184.7435,63.6676651 184.773833,63.3860013 184.8345,63.126 C184.895167,62.8659987 184.996999,62.638501 185.14,62.4435 C185.283001,62.248499 185.471499,62.0946672 185.7055,61.982 C185.939501,61.8693328 186.225498,61.813 186.5635,61.813 C186.676167,61.813 186.793166,61.8194999 186.9145,61.8325 C187.035834,61.8455001 187.139833,61.8606666 187.2265,61.878 L187.2265,60.162 C187.079166,60.1186665 186.944834,60.097 186.8235,60.097 C186.589499,60.097 186.364168,60.1316663 186.1475,60.201 C185.930832,60.2703337 185.727168,60.3678327 185.5365,60.4935 C185.345832,60.6191673 185.176834,60.7708324 185.0295,60.9485 C184.882166,61.1261676 184.765167,61.318999 184.6785,61.527 L184.6525,61.527 L184.6525,60.279 L182.8975,60.279 Z M189.3845,64.816 L187.6295,64.816 C187.646833,65.2666689 187.748666,65.6414985 187.935,65.9405 C188.121334,66.2395015 188.359665,66.4799991 188.65,66.662 C188.940335,66.8440009 189.271831,66.9739996 189.6445,67.052 C190.017169,67.1300004 190.398498,67.169 190.7885,67.169 C191.169835,67.169 191.544665,67.132167 191.913,67.0585 C192.281335,66.984833 192.608499,66.8570009 192.8945,66.675 C193.180501,66.4929991 193.412332,66.2525015 193.59,65.9535 C193.767668,65.6544985 193.8565,65.2840022 193.8565,64.842 C193.8565,64.5299984 193.795834,64.2678344 193.6745,64.0555 C193.553166,63.8431656 193.392834,63.6655007 193.1935,63.5225 C192.994166,63.3794993 192.766668,63.2646671 192.511,63.178 C192.255332,63.0913329 191.993168,63.017667 191.7245,62.957 C191.464499,62.896333 191.208835,62.8400003 190.9575,62.788 C190.706165,62.7359997 190.483001,62.6775003 190.288,62.6125 C190.092999,62.5474997 189.934834,62.4630005 189.8135,62.359 C189.692166,62.2549995 189.6315,62.1206675 189.6315,61.956 C189.6315,61.8173326 189.666166,61.7068337 189.7355,61.6245 C189.804834,61.5421663 189.889333,61.4793336 189.989,61.436 C190.088667,61.3926664 190.199166,61.3645001 190.3205,61.3515 C190.441834,61.3384999 190.554499,61.332 190.6585,61.332 C190.987835,61.332 191.273832,61.3948327 191.5165,61.5205 C191.759168,61.6461673 191.8935,61.8866649 191.9195,62.242 L193.6745,62.242 C193.639833,61.8259979 193.533668,61.4815014 193.356,61.2085 C193.178332,60.9354986 192.955168,60.7166675 192.6865,60.552 C192.417832,60.3873325 192.112335,60.2703337 191.77,60.201 C191.427665,60.1316663 191.074502,60.097 190.7105,60.097 C190.346498,60.097 189.991168,60.1294997 189.6445,60.1945 C189.297832,60.2595003 188.985835,60.3721659 188.7085,60.5325 C188.431165,60.6928341 188.208001,60.9116653 188.039,61.189 C187.869999,61.4663347 187.7855,61.8216645 187.7855,62.255 C187.7855,62.5496681 187.846166,62.7988323 187.9675,63.0025 C188.088834,63.2061677 188.249166,63.375166 188.4485,63.5095 C188.647834,63.643834 188.875332,63.7521663 189.131,63.8345 C189.386668,63.9168337 189.648832,63.988333 189.9175,64.049 C190.57617,64.1876674 191.089665,64.3263326 191.458,64.465 C191.826335,64.6036674 192.0105,64.8116653 192.0105,65.089 C192.0105,65.2536675 191.9715,65.3901661 191.8935,65.4985 C191.8155,65.6068339 191.718001,65.6934997 191.601,65.7585 C191.483999,65.8235003 191.354001,65.8711665 191.211,65.9015 C191.067999,65.9318335 190.931501,65.947 190.8015,65.947 C190.619499,65.947 190.444001,65.9253336 190.275,65.882 C190.105999,65.8386664 189.956501,65.7715005 189.8265,65.6805 C189.696499,65.5894995 189.590334,65.4725007 189.508,65.3295 C189.425666,65.1864993 189.3845,65.0153343 189.3845,64.816 L189.3845,64.816 Z M206.2325,67 L208.3515,60.279 L206.4535,60.279 L205.2185,64.829 L205.1925,64.829 L204.0485,60.279 L202.2545,60.279 L201.1365,64.842 L201.1105,64.842 L199.8755,60.279 L197.9255,60.279 L200.0575,67 L201.9685,67 L203.1125,62.489 L203.1385,62.489 L204.3345,67 L206.2325,67 Z M209.1315,57.718 L209.1315,67 L210.9775,67 L210.9775,63.477 C210.9775,62.7923299 211.090166,62.3005015 211.3155,62.0015 C211.540834,61.7024985 211.904831,61.553 212.4075,61.553 C212.849502,61.553 213.157166,61.6894986 213.3305,61.9625 C213.503834,62.2355014 213.5905,62.6493306 213.5905,63.204 L213.5905,67 L215.4365,67 L215.4365,62.866 C215.4365,62.4499979 215.399667,62.070835 215.326,61.7285 C215.252333,61.386165 215.124501,61.0958345 214.9425,60.8575 C214.760499,60.6191655 214.511335,60.432834 214.195,60.2985 C213.878665,60.164166 213.473502,60.097 212.9795,60.097 C212.632832,60.097 212.277502,60.1858324 211.9135,60.3635 C211.549498,60.5411676 211.250501,60.824998 211.0165,61.215 L210.9775,61.215 L210.9775,57.718 L209.1315,57.718 Z M221.3645,62.918 L218.3615,62.918 C218.370167,62.7879994 218.398333,62.6406675 218.446,62.476 C218.493667,62.3113325 218.575999,62.1553341 218.693,62.008 C218.810001,61.8606659 218.965999,61.7371672 219.161,61.6375 C219.356001,61.5378328 219.600832,61.488 219.8955,61.488 C220.346169,61.488 220.681999,61.6093321 220.903,61.852 C221.124001,62.0946679 221.277833,62.4499977 221.3645,62.918 L221.3645,62.918 Z M218.3615,64.088 L223.2105,64.088 C223.245167,63.5679974 223.201834,63.069669 223.0805,62.593 C222.959166,62.116331 222.762001,61.6916685 222.489,61.319 C222.215999,60.9463315 221.867169,60.6495011 221.4425,60.4285 C221.017831,60.2074989 220.519503,60.097 219.9475,60.097 C219.436164,60.097 218.970335,60.1879991 218.55,60.37 C218.129665,60.5520009 217.767835,60.8011651 217.4645,61.1175 C217.161165,61.4338349 216.927167,61.8086645 216.7625,62.242 C216.597833,62.6753355 216.5155,63.1433308 216.5155,63.646 C216.5155,64.1660026 216.595666,64.6426645 216.756,65.076 C216.916334,65.5093355 217.143832,65.8819984 217.4385,66.194 C217.733168,66.5060016 218.092831,66.7464992 218.5175,66.9155 C218.942169,67.0845008 219.418831,67.169 219.9475,67.169 C220.71017,67.169 221.360164,66.9956684 221.8975,66.649 C222.434836,66.3023316 222.833499,65.726004 223.0935,64.92 L221.4685,64.92 C221.407833,65.128001 221.243168,65.3251657 220.9745,65.5115 C220.705832,65.6978343 220.385169,65.791 220.0125,65.791 C219.492497,65.791 219.093835,65.656668 218.8165,65.388 C218.539165,65.119332 218.3875,64.686003 218.3615,64.088 L218.3615,64.088 Z M224.3025,60.279 L224.3025,67 L226.1485,67 L226.1485,63.477 C226.1485,62.7923299 226.261166,62.3005015 226.4865,62.0015 C226.711834,61.7024985 227.075831,61.553 227.5785,61.553 C228.020502,61.553 228.328166,61.6894986 228.5015,61.9625 C228.674834,62.2355014 228.7615,62.6493306 228.7615,63.204 L228.7615,67 L230.6075,67 L230.6075,62.866 C230.6075,62.4499979 230.570667,62.070835 230.497,61.7285 C230.423333,61.386165 230.295501,61.0958345 230.1135,60.8575 C229.931499,60.6191655 229.682335,60.432834 229.366,60.2985 C229.049665,60.164166 228.644502,60.097 228.1505,60.097 C227.760498,60.097 227.379169,60.1858324 227.0065,60.3635 C226.633831,60.5411676 226.330501,60.824998 226.0965,61.215 L226.0575,61.215 L226.0575,60.279 L224.3025,60.279 Z M235.5475,62.346 C235.5735,61.9126645 235.681832,61.5530014 235.8725,61.267 C236.063168,60.9809986 236.305832,60.7513342 236.6005,60.578 C236.895168,60.4046658 237.226665,60.281167 237.595,60.2075 C237.963335,60.133833 238.333831,60.097 238.7065,60.097 C239.044502,60.097 239.386832,60.1208331 239.7335,60.1685 C240.080168,60.2161669 240.396499,60.3093326 240.6825,60.448 C240.968501,60.5866674 241.202499,60.7794988 241.3845,61.0265 C241.566501,61.2735012 241.6575,61.6006646 241.6575,62.008 L241.6575,65.505 C241.6575,65.8083348 241.674833,66.0986653 241.7095,66.376 C241.744167,66.6533347 241.804833,66.8613326 241.8915,67 L240.0195,67 C239.984833,66.8959995 239.956667,66.7898339 239.935,66.6815 C239.913333,66.5731661 239.898167,66.4626672 239.8895,66.35 C239.594832,66.6533348 239.248169,66.8656661 238.8495,66.987 C238.450831,67.1083339 238.043502,67.169 237.6275,67.169 C237.306832,67.169 237.007835,67.1300004 236.7305,67.052 C236.453165,66.9739996 236.210501,66.8526675 236.0025,66.688 C235.794499,66.5233325 235.632001,66.3153346 235.515,66.064 C235.397999,65.8126654 235.3395,65.5136684 235.3395,65.167 C235.3395,64.7856648 235.406666,64.4715012 235.541,64.2245 C235.675334,63.9774988 235.848666,63.7803341 236.061,63.633 C236.273334,63.4856659 236.515999,63.375167 236.789,63.3015 C237.062001,63.227833 237.337165,63.1693335 237.6145,63.126 C237.891835,63.0826665 238.164832,63.0480001 238.4335,63.022 C238.702168,62.9959999 238.940499,62.9570003 239.1485,62.905 C239.356501,62.8529997 239.521166,62.7771672 239.6425,62.6775 C239.763834,62.5778328 239.820167,62.4326676 239.8115,62.242 C239.8115,62.0426657 239.779,61.8845006 239.714,61.7675 C239.649,61.6504994 239.562334,61.5595003 239.454,61.4945 C239.345666,61.4294997 239.220001,61.3861668 239.077,61.3645 C238.933999,61.3428332 238.780167,61.332 238.6155,61.332 C238.251498,61.332 237.965501,61.4099992 237.7575,61.566 C237.549499,61.7220008 237.428167,61.9819982 237.3935,62.346 L235.5475,62.346 Z M239.8115,63.711 C239.7335,63.7803337 239.636001,63.8344998 239.519,63.8735 C239.401999,63.9125002 239.276334,63.9449999 239.142,63.971 C239.007666,63.9970001 238.866834,64.0186666 238.7195,64.036 C238.572166,64.0533334 238.424834,64.0749999 238.2775,64.101 C238.138833,64.1270001 238.002334,64.1616664 237.868,64.205 C237.733666,64.2483336 237.616667,64.306833 237.517,64.3805 C237.417333,64.454167 237.337167,64.5473328 237.2765,64.66 C237.215833,64.7726672 237.1855,64.9156658 237.1855,65.089 C237.1855,65.2536675 237.215833,65.3923328 237.2765,65.505 C237.337167,65.6176672 237.419499,65.7064997 237.5235,65.7715 C237.627501,65.8365003 237.748833,65.8819999 237.8875,65.908 C238.026167,65.9340001 238.169166,65.947 238.3165,65.947 C238.680502,65.947 238.962166,65.8863339 239.1615,65.765 C239.360834,65.6436661 239.508166,65.4985008 239.6035,65.3295 C239.698834,65.1604992 239.757333,64.9893342 239.779,64.816 C239.800667,64.6426658 239.8115,64.5040005 239.8115,64.4 L239.8115,63.711 Z M243.0875,60.279 L243.0875,67 L244.9335,67 L244.9335,63.477 C244.9335,62.7923299 245.046166,62.3005015 245.2715,62.0015 C245.496834,61.7024985 245.860831,61.553 246.3635,61.553 C246.805502,61.553 247.113166,61.6894986 247.2865,61.9625 C247.459834,62.2355014 247.5465,62.6493306 247.5465,63.204 L247.5465,67 L249.3925,67 L249.3925,62.866 C249.3925,62.4499979 249.355667,62.070835 249.282,61.7285 C249.208333,61.386165 249.080501,61.0958345 248.8985,60.8575 C248.716499,60.6191655 248.467335,60.432834 248.151,60.2985 C247.834665,60.164166 247.429502,60.097 246.9355,60.097 C246.545498,60.097 246.164169,60.1858324 245.7915,60.3635 C245.418831,60.5411676 245.115501,60.824998 244.8815,61.215 L244.8425,61.215 L244.8425,60.279 L243.0875,60.279 Z M256.3085,59.239 L256.3085,57.718 L254.4625,57.718 L254.4625,59.239 L256.3085,59.239 Z M254.4625,60.279 L254.4625,67 L256.3085,67 L256.3085,60.279 L254.4625,60.279 Z M257.7645,60.279 L257.7645,67 L259.6105,67 L259.6105,63.477 C259.6105,62.7923299 259.723166,62.3005015 259.9485,62.0015 C260.173834,61.7024985 260.537831,61.553 261.0405,61.553 C261.482502,61.553 261.790166,61.6894986 261.9635,61.9625 C262.136834,62.2355014 262.2235,62.6493306 262.2235,63.204 L262.2235,67 L264.0695,67 L264.0695,62.866 C264.0695,62.4499979 264.032667,62.070835 263.959,61.7285 C263.885333,61.386165 263.757501,61.0958345 263.5755,60.8575 C263.393499,60.6191655 263.144335,60.432834 262.828,60.2985 C262.511665,60.164166 262.106502,60.097 261.6125,60.097 C261.222498,60.097 260.841169,60.1858324 260.4685,60.3635 C260.095831,60.5411676 259.792501,60.824998 259.5585,61.215 L259.5195,61.215 L259.5195,60.279 L257.7645,60.279 Z M269.1915,67 L271.4665,60.279 L269.6335,60.279 L268.2165,64.868 L268.1905,64.868 L266.7735,60.279 L264.8365,60.279 L267.1375,67 L269.1915,67 Z M273.8715,63.646 C273.8715,63.377332 273.8975,63.1130013 273.9495,62.853 C274.0015,62.5929987 274.090333,62.3633343 274.216,62.164 C274.341667,61.9646657 274.508499,61.8021673 274.7165,61.6765 C274.924501,61.5508327 275.184498,61.488 275.4965,61.488 C275.808502,61.488 276.070666,61.5508327 276.283,61.6765 C276.495334,61.8021673 276.664333,61.9646657 276.79,62.164 C276.915667,62.3633343 277.0045,62.5929987 277.0565,62.853 C277.1085,63.1130013 277.1345,63.377332 277.1345,63.646 C277.1345,63.914668 277.1085,64.1768321 277.0565,64.4325 C277.0045,64.6881679 276.915667,64.9178323 276.79,65.1215 C276.664333,65.3251677 276.495334,65.4876661 276.283,65.609 C276.070666,65.7303339 275.808502,65.791 275.4965,65.791 C275.184498,65.791 274.924501,65.7303339 274.7165,65.609 C274.508499,65.4876661 274.341667,65.3251677 274.216,65.1215 C274.090333,64.9178323 274.0015,64.6881679 273.9495,64.4325 C273.8975,64.1768321 273.8715,63.914668 273.8715,63.646 L273.8715,63.646 Z M272.0255,63.646 C272.0255,64.183336 272.107833,64.6686645 272.2725,65.102 C272.437167,65.5353355 272.671165,65.9058318 272.9745,66.2135 C273.277835,66.5211682 273.641831,66.7573325 274.0665,66.922 C274.491169,67.0866675 274.967831,67.169 275.4965,67.169 C276.025169,67.169 276.503998,67.0866675 276.933,66.922 C277.362002,66.7573325 277.728165,66.5211682 278.0315,66.2135 C278.334835,65.9058318 278.568833,65.5353355 278.7335,65.102 C278.898167,64.6686645 278.9805,64.183336 278.9805,63.646 C278.9805,63.108664 278.898167,62.6211689 278.7335,62.1835 C278.568833,61.7458311 278.334835,61.3731682 278.0315,61.0655 C277.728165,60.7578318 277.362002,60.5195008 276.933,60.3505 C276.503998,60.1814992 276.025169,60.097 275.4965,60.097 C274.967831,60.097 274.491169,60.1814992 274.0665,60.3505 C273.641831,60.5195008 273.277835,60.7578318 272.9745,61.0655 C272.671165,61.3731682 272.437167,61.7458311 272.2725,62.1835 C272.107833,62.6211689 272.0255,63.108664 272.0255,63.646 L272.0255,63.646 Z M282.0745,59.239 L282.0745,57.718 L280.2285,57.718 L280.2285,59.239 L282.0745,59.239 Z M280.2285,60.279 L280.2285,67 L282.0745,67 L282.0745,60.279 L280.2285,60.279 Z M288.1065,62.645 L289.9135,62.645 C289.8875,62.2116645 289.783501,61.8368349 289.6015,61.5205 C289.419499,61.2041651 289.183335,60.9398344 288.893,60.7275 C288.602665,60.5151656 288.273335,60.3570005 287.905,60.253 C287.536665,60.1489995 287.153169,60.097 286.7545,60.097 C286.208497,60.097 285.723169,60.1879991 285.2985,60.37 C284.873831,60.5520009 284.514168,60.8054984 284.2195,61.1305 C283.924832,61.4555016 283.701667,61.8411644 283.55,62.2875 C283.398333,62.7338356 283.3225,63.2169974 283.3225,63.737 C283.3225,64.2396692 283.404833,64.7011646 283.5695,65.1215 C283.734167,65.5418354 283.963832,65.9036652 284.2585,66.207 C284.553168,66.5103348 284.910665,66.7464992 285.331,66.9155 C285.751335,67.0845008 286.212831,67.169 286.7155,67.169 C287.608171,67.169 288.340497,66.9350023 288.9125,66.467 C289.484503,65.9989977 289.831166,65.3186711 289.9525,64.426 L288.1715,64.426 C288.110833,64.8420021 287.961335,65.1734988 287.723,65.4205 C287.484665,65.6675012 287.144502,65.791 286.7025,65.791 C286.416499,65.791 286.173834,65.7260007 285.9745,65.596 C285.775166,65.4659993 285.617001,65.2991677 285.5,65.0955 C285.382999,64.8918323 285.2985,64.6643346 285.2465,64.413 C285.1945,64.1616654 285.1685,63.9146679 285.1685,63.672 C285.1685,63.4206654 285.1945,63.1671679 285.2465,62.9115 C285.2985,62.6558321 285.387333,62.4218344 285.513,62.2095 C285.638667,61.9971656 285.801166,61.823834 286.0005,61.6895 C286.199834,61.555166 286.446832,61.488 286.7415,61.488 C287.530171,61.488 287.985166,61.8736628 288.1065,62.645 L288.1065,62.645 Z M295.5165,62.918 L292.5135,62.918 C292.522167,62.7879994 292.550333,62.6406675 292.598,62.476 C292.645667,62.3113325 292.727999,62.1553341 292.845,62.008 C292.962001,61.8606659 293.117999,61.7371672 293.313,61.6375 C293.508001,61.5378328 293.752832,61.488 294.0475,61.488 C294.498169,61.488 294.833999,61.6093321 295.055,61.852 C295.276001,62.0946679 295.429833,62.4499977 295.5165,62.918 L295.5165,62.918 Z M292.5135,64.088 L297.3625,64.088 C297.397167,63.5679974 297.353834,63.069669 297.2325,62.593 C297.111166,62.116331 296.914001,61.6916685 296.641,61.319 C296.367999,60.9463315 296.019169,60.6495011 295.5945,60.4285 C295.169831,60.2074989 294.671503,60.097 294.0995,60.097 C293.588164,60.097 293.122335,60.1879991 292.702,60.37 C292.281665,60.5520009 291.919835,60.8011651 291.6165,61.1175 C291.313165,61.4338349 291.079167,61.8086645 290.9145,62.242 C290.749833,62.6753355 290.6675,63.1433308 290.6675,63.646 C290.6675,64.1660026 290.747666,64.6426645 290.908,65.076 C291.068334,65.5093355 291.295832,65.8819984 291.5905,66.194 C291.885168,66.5060016 292.244831,66.7464992 292.6695,66.9155 C293.094169,67.0845008 293.570831,67.169 294.0995,67.169 C294.86217,67.169 295.512164,66.9956684 296.0495,66.649 C296.586836,66.3023316 296.985499,65.726004 297.2455,64.92 L295.6205,64.92 C295.559833,65.128001 295.395168,65.3251657 295.1265,65.5115 C294.857832,65.6978343 294.537169,65.791 294.1645,65.791 C293.644497,65.791 293.245835,65.656668 292.9685,65.388 C292.691165,65.119332 292.5395,64.686003 292.5135,64.088 L292.5135,64.088 Z M303.9665,59.239 L303.9665,57.718 L302.1205,57.718 L302.1205,59.239 L303.9665,59.239 Z M302.1205,60.279 L302.1205,67 L303.9665,67 L303.9665,60.279 L302.1205,60.279 Z M306.8525,64.816 L305.0975,64.816 C305.114833,65.2666689 305.216666,65.6414985 305.403,65.9405 C305.589334,66.2395015 305.827665,66.4799991 306.118,66.662 C306.408335,66.8440009 306.739831,66.9739996 307.1125,67.052 C307.485169,67.1300004 307.866498,67.169 308.2565,67.169 C308.637835,67.169 309.012665,67.132167 309.381,67.0585 C309.749335,66.984833 310.076499,66.8570009 310.3625,66.675 C310.648501,66.4929991 310.880332,66.2525015 311.058,65.9535 C311.235668,65.6544985 311.3245,65.2840022 311.3245,64.842 C311.3245,64.5299984 311.263834,64.2678344 311.1425,64.0555 C311.021166,63.8431656 310.860834,63.6655007 310.6615,63.5225 C310.462166,63.3794993 310.234668,63.2646671 309.979,63.178 C309.723332,63.0913329 309.461168,63.017667 309.1925,62.957 C308.932499,62.896333 308.676835,62.8400003 308.4255,62.788 C308.174165,62.7359997 307.951001,62.6775003 307.756,62.6125 C307.560999,62.5474997 307.402834,62.4630005 307.2815,62.359 C307.160166,62.2549995 307.0995,62.1206675 307.0995,61.956 C307.0995,61.8173326 307.134166,61.7068337 307.2035,61.6245 C307.272834,61.5421663 307.357333,61.4793336 307.457,61.436 C307.556667,61.3926664 307.667166,61.3645001 307.7885,61.3515 C307.909834,61.3384999 308.022499,61.332 308.1265,61.332 C308.455835,61.332 308.741832,61.3948327 308.9845,61.5205 C309.227168,61.6461673 309.3615,61.8866649 309.3875,62.242 L311.1425,62.242 C311.107833,61.8259979 311.001668,61.4815014 310.824,61.2085 C310.646332,60.9354986 310.423168,60.7166675 310.1545,60.552 C309.885832,60.3873325 309.580335,60.2703337 309.238,60.201 C308.895665,60.1316663 308.542502,60.097 308.1785,60.097 C307.814498,60.097 307.459168,60.1294997 307.1125,60.1945 C306.765832,60.2595003 306.453835,60.3721659 306.1765,60.5325 C305.899165,60.6928341 305.676001,60.9116653 305.507,61.189 C305.337999,61.4663347 305.2535,61.8216645 305.2535,62.255 C305.2535,62.5496681 305.314166,62.7988323 305.4355,63.0025 C305.556834,63.2061677 305.717166,63.375166 305.9165,63.5095 C306.115834,63.643834 306.343332,63.7521663 306.599,63.8345 C306.854668,63.9168337 307.116832,63.988333 307.3855,64.049 C308.04417,64.1876674 308.557665,64.3263326 308.926,64.465 C309.294335,64.6036674 309.4785,64.8116653 309.4785,65.089 C309.4785,65.2536675 309.4395,65.3901661 309.3615,65.4985 C309.2835,65.6068339 309.186001,65.6934997 309.069,65.7585 C308.951999,65.8235003 308.822001,65.8711665 308.679,65.9015 C308.535999,65.9318335 308.399501,65.947 308.2695,65.947 C308.087499,65.947 307.912001,65.9253336 307.743,65.882 C307.573999,65.8386664 307.424501,65.7715005 307.2945,65.6805 C307.164499,65.5894995 307.058334,65.4725007 306.976,65.3295 C306.893666,65.1864993 306.8525,65.0153343 306.8525,64.816 L306.8525,64.816 Z M321.5035,64.998 L321.5035,67 L323.5445,67 L323.5445,64.998 L321.5035,64.998 Z M317.1745,64.998 L317.1745,67 L319.2155,67 L319.2155,64.998 L317.1745,64.998 Z M312.8455,64.998 L312.8455,67 L314.8865,67 L314.8865,64.998 L312.8455,64.998 Z" id="Email-customers-when" fill="#7E90A2"></path>
                    <path d="M303.341,162.6995 L303.341,160.181 L302.559,160.181 L302.559,162.6995 L300.052,162.6995 L300.052,163.4815 L302.559,163.4815 L302.559,166 L303.341,166 L303.341,163.4815 L305.848,163.4815 L305.848,162.6995 L303.341,162.6995 Z M311.9085,162.6075 L313.3,158.778 L313.323,158.778 L314.6915,162.6075 L311.9085,162.6075 Z M312.725,157.789 L309.528,166 L310.6435,166 L311.5635,163.5275 L315.0365,163.5275 L315.9335,166 L317.141,166 L313.9325,157.789 L312.725,157.789 Z M318.498,163.079 C318.498,162.787665 318.528666,162.504001 318.59,162.228 C318.651334,161.951999 318.750999,161.706668 318.889,161.492 C319.027001,161.277332 319.210999,161.104834 319.441,160.9745 C319.671001,160.844166 319.950832,160.779 320.2805,160.779 C320.617835,160.779 320.905332,160.842249 321.143,160.96875 C321.380668,161.095251 321.574249,161.261999 321.72375,161.469 C321.873251,161.676001 321.9825,161.915582 322.0515,162.18775 C322.1205,162.459918 322.155,162.741665 322.155,163.033 C322.155,163.309001 322.122417,163.581165 322.05725,163.8495 C321.992083,164.117835 321.886667,164.357416 321.741,164.56825 C321.595333,164.779084 321.407501,164.949666 321.1775,165.08 C320.947499,165.210334 320.667668,165.2755 320.338,165.2755 C320.023665,165.2755 319.749585,165.214167 319.51575,165.0915 C319.281915,164.968833 319.090251,164.804001 318.94075,164.597 C318.791249,164.389999 318.680084,164.154251 318.60725,163.88975 C318.534416,163.625249 318.498,163.355001 318.498,163.079 L318.498,163.079 Z M323.098,166 L323.098,157.789 L322.1205,157.789 L322.1205,160.848 L322.0975,160.848 C321.990166,160.671666 321.857917,160.524084 321.70075,160.40525 C321.543583,160.286416 321.376834,160.190584 321.2005,160.11775 C321.024166,160.044916 320.847834,159.993167 320.6715,159.9625 C320.495166,159.931833 320.330334,159.9165 320.177,159.9165 C319.724664,159.9165 319.327918,159.998916 318.98675,160.16375 C318.645582,160.328584 318.361918,160.550915 318.13575,160.83075 C317.909582,161.110585 317.740917,161.438331 317.62975,161.814 C317.518583,162.189669 317.463,162.588331 317.463,163.01 C317.463,163.431669 317.520499,163.830331 317.6355,164.206 C317.750501,164.581669 317.921082,164.911332 318.14725,165.195 C318.373418,165.478668 318.657082,165.704832 318.99825,165.8735 C319.339418,166.042168 319.739998,166.1265 320.2,166.1265 C320.614002,166.1265 320.993498,166.053667 321.3385,165.908 C321.683502,165.762333 321.936499,165.524668 322.0975,165.195 L322.1205,165.195 L322.1205,166 L323.098,166 Z M325.3175,163.079 C325.3175,162.787665 325.348166,162.504001 325.4095,162.228 C325.470834,161.951999 325.570499,161.706668 325.7085,161.492 C325.846501,161.277332 326.030499,161.104834 326.2605,160.9745 C326.490501,160.844166 326.770332,160.779 327.1,160.779 C327.437335,160.779 327.724832,160.842249 327.9625,160.96875 C328.200168,161.095251 328.393749,161.261999 328.54325,161.469 C328.692751,161.676001 328.802,161.915582 328.871,162.18775 C328.94,162.459918 328.9745,162.741665 328.9745,163.033 C328.9745,163.309001 328.941917,163.581165 328.87675,163.8495 C328.811583,164.117835 328.706167,164.357416 328.5605,164.56825 C328.414833,164.779084 328.227001,164.949666 327.997,165.08 C327.766999,165.210334 327.487168,165.2755 327.1575,165.2755 C326.843165,165.2755 326.569085,165.214167 326.33525,165.0915 C326.101415,164.968833 325.909751,164.804001 325.76025,164.597 C325.610749,164.389999 325.499584,164.154251 325.42675,163.88975 C325.353916,163.625249 325.3175,163.355001 325.3175,163.079 L325.3175,163.079 Z M329.9175,166 L329.9175,157.789 L328.94,157.789 L328.94,160.848 L328.917,160.848 C328.809666,160.671666 328.677417,160.524084 328.52025,160.40525 C328.363083,160.286416 328.196334,160.190584 328.02,160.11775 C327.843666,160.044916 327.667334,159.993167 327.491,159.9625 C327.314666,159.931833 327.149834,159.9165 326.9965,159.9165 C326.544164,159.9165 326.147418,159.998916 325.80625,160.16375 C325.465082,160.328584 325.181418,160.550915 324.95525,160.83075 C324.729082,161.110585 324.560417,161.438331 324.44925,161.814 C324.338083,162.189669 324.2825,162.588331 324.2825,163.01 C324.2825,163.431669 324.339999,163.830331 324.455,164.206 C324.570001,164.581669 324.740582,164.911332 324.96675,165.195 C325.192918,165.478668 325.476582,165.704832 325.81775,165.8735 C326.158918,166.042168 326.559498,166.1265 327.0195,166.1265 C327.433502,166.1265 327.812998,166.053667 328.158,165.908 C328.503002,165.762333 328.755999,165.524668 328.917,165.195 L328.94,165.195 L328.94,166 L329.9175,166 Z M334.5865,160.0545 L334.5865,166 L335.564,166 L335.564,163.355 C335.564,162.971665 335.602333,162.632418 335.679,162.33725 C335.755667,162.042082 335.878332,161.791001 336.047,161.584 C336.215668,161.376999 336.437999,161.219834 336.714,161.1125 C336.990001,161.005166 337.323498,160.9515 337.7145,160.9515 L337.7145,159.9165 C337.185497,159.901167 336.748502,160.008499 336.4035,160.2385 C336.058498,160.468501 335.767168,160.824998 335.5295,161.308 L335.5065,161.308 L335.5065,160.0545 L334.5865,160.0545 Z M342.579,162.458 L339.1635,162.458 C339.178833,162.227999 339.228666,162.011418 339.313,161.80825 C339.397334,161.605082 339.512333,161.426834 339.658,161.2735 C339.803667,161.120166 339.978082,160.999417 340.18125,160.91125 C340.384418,160.823083 340.612499,160.779 340.8655,160.779 C341.110835,160.779 341.335082,160.823083 341.53825,160.91125 C341.741418,160.999417 341.917749,161.118249 342.06725,161.26775 C342.216751,161.417251 342.335583,161.595499 342.42375,161.8025 C342.511917,162.009501 342.563667,162.227999 342.579,162.458 L342.579,162.458 Z M343.522,164.114 L342.556,164.114 C342.471666,164.505002 342.297251,164.796332 342.03275,164.988 C341.768249,165.179668 341.429002,165.2755 341.015,165.2755 C340.692998,165.2755 340.413168,165.221834 340.1755,165.1145 C339.937832,165.007166 339.742334,164.863418 339.589,164.68325 C339.435666,164.503082 339.3245,164.296085 339.2555,164.06225 C339.1865,163.828415 339.155833,163.581168 339.1635,163.3205 L343.614,163.3205 C343.629333,162.960165 343.59675,162.580669 343.51625,162.182 C343.43575,161.783331 343.290084,161.415335 343.07925,161.078 C342.868416,160.740665 342.588585,160.462751 342.23975,160.24425 C341.890915,160.025749 341.452003,159.9165 340.923,159.9165 C340.516665,159.9165 340.142918,159.993166 339.80175,160.1465 C339.460582,160.299834 339.165418,160.514499 338.91625,160.7905 C338.667082,161.066501 338.473501,161.392331 338.3355,161.768 C338.197499,162.143669 338.1285,162.557664 338.1285,163.01 C338.143833,163.462336 338.210916,163.880165 338.32975,164.2635 C338.448584,164.646835 338.626832,164.976499 338.8645,165.2525 C339.102168,165.528501 339.395415,165.743166 339.74425,165.8965 C340.093085,166.049834 340.505164,166.1265 340.9805,166.1265 C341.65517,166.1265 342.214831,165.957835 342.6595,165.6205 C343.104169,165.283165 343.391666,164.781003 343.522,164.114 L343.522,164.114 Z M344.626,160.0545 L344.626,166 L345.6035,166 L345.6035,162.297 C345.6035,162.181999 345.63225,162.038251 345.68975,161.86575 C345.74725,161.693249 345.839249,161.526501 345.96575,161.3655 C346.092251,161.204499 346.257082,161.066501 346.46025,160.9515 C346.663418,160.836499 346.906832,160.779 347.1905,160.779 C347.412834,160.779 347.594916,160.811583 347.73675,160.87675 C347.878584,160.941917 347.991666,161.033916 348.076,161.15275 C348.160334,161.271584 348.21975,161.411499 348.25425,161.5725 C348.28875,161.733501 348.306,161.909832 348.306,162.1015 L348.306,166 L349.2835,166 L349.2835,162.297 C349.2835,161.836998 349.421499,161.469001 349.6975,161.193 C349.973501,160.916999 350.352998,160.779 350.836,160.779 C351.073668,160.779 351.267249,160.8135 351.41675,160.8825 C351.566251,160.9515 351.683166,161.045416 351.7675,161.16425 C351.851834,161.283084 351.909333,161.422999 351.94,161.584 C351.970667,161.745001 351.986,161.917499 351.986,162.1015 L351.986,166 L352.9635,166 L352.9635,161.6415 C352.9635,161.334832 352.915584,161.072251 352.81975,160.85375 C352.723916,160.635249 352.589751,160.457001 352.41725,160.319 C352.244749,160.180999 352.037751,160.079417 351.79625,160.01425 C351.554749,159.949083 351.284501,159.9165 350.9855,159.9165 C350.594498,159.9165 350.236085,160.004666 349.91025,160.181 C349.584415,160.357334 349.321834,160.606498 349.1225,160.9285 C348.999833,160.560498 348.789001,160.299834 348.49,160.1465 C348.190999,159.993166 347.857502,159.9165 347.4895,159.9165 C346.653829,159.9165 346.013669,160.25383 345.569,160.9285 L345.546,160.9285 L345.546,160.0545 L344.626,160.0545 Z M355.4705,158.985 L355.4705,157.789 L354.493,157.789 L354.493,158.985 L355.4705,158.985 Z M354.493,160.0545 L354.493,166 L355.4705,166 L355.4705,160.0545 L354.493,160.0545 Z M356.9885,160.0545 L356.9885,166 L357.966,166 L357.966,162.642 C357.966,162.373665 358.002416,162.126418 358.07525,161.90025 C358.148084,161.674082 358.257333,161.476668 358.403,161.308 C358.548667,161.139332 358.730749,161.009 358.94925,160.917 C359.167751,160.825 359.426499,160.779 359.7255,160.779 C360.101169,160.779 360.396332,160.886332 360.611,161.101 C360.825668,161.315668 360.933,161.606998 360.933,161.975 L360.933,166 L361.9105,166 L361.9105,162.09 C361.9105,161.767998 361.877917,161.474751 361.81275,161.21025 C361.747583,160.945749 361.634501,160.717668 361.4735,160.526 C361.312499,160.334332 361.101668,160.184834 360.841,160.0775 C360.580332,159.970166 360.254502,159.9165 359.8635,159.9165 C358.981829,159.9165 358.337835,160.27683 357.9315,160.9975 L357.9085,160.9975 L357.9085,160.0545 L356.9885,160.0545 Z M364.0955,163.079 C364.0955,162.787665 364.126166,162.504001 364.1875,162.228 C364.248834,161.951999 364.348499,161.706668 364.4865,161.492 C364.624501,161.277332 364.808499,161.104834 365.0385,160.9745 C365.268501,160.844166 365.548332,160.779 365.878,160.779 C366.215335,160.779 366.502832,160.842249 366.7405,160.96875 C366.978168,161.095251 367.171749,161.261999 367.32125,161.469 C367.470751,161.676001 367.58,161.915582 367.649,162.18775 C367.718,162.459918 367.7525,162.741665 367.7525,163.033 C367.7525,163.309001 367.719917,163.581165 367.65475,163.8495 C367.589583,164.117835 367.484167,164.357416 367.3385,164.56825 C367.192833,164.779084 367.005001,164.949666 366.775,165.08 C366.544999,165.210334 366.265168,165.2755 365.9355,165.2755 C365.621165,165.2755 365.347085,165.214167 365.11325,165.0915 C364.879415,164.968833 364.687751,164.804001 364.53825,164.597 C364.388749,164.389999 364.277584,164.154251 364.20475,163.88975 C364.131916,163.625249 364.0955,163.355001 364.0955,163.079 L364.0955,163.079 Z M368.6955,166 L368.6955,157.789 L367.718,157.789 L367.718,160.848 L367.695,160.848 C367.587666,160.671666 367.455417,160.524084 367.29825,160.40525 C367.141083,160.286416 366.974334,160.190584 366.798,160.11775 C366.621666,160.044916 366.445334,159.993167 366.269,159.9625 C366.092666,159.931833 365.927834,159.9165 365.7745,159.9165 C365.322164,159.9165 364.925418,159.998916 364.58425,160.16375 C364.243082,160.328584 363.959418,160.550915 363.73325,160.83075 C363.507082,161.110585 363.338417,161.438331 363.22725,161.814 C363.116083,162.189669 363.0605,162.588331 363.0605,163.01 C363.0605,163.431669 363.117999,163.830331 363.233,164.206 C363.348001,164.581669 363.518582,164.911332 363.74475,165.195 C363.970918,165.478668 364.254582,165.704832 364.59575,165.8735 C364.936918,166.042168 365.337498,166.1265 365.7975,166.1265 C366.211502,166.1265 366.590998,166.053667 366.936,165.908 C367.281002,165.762333 367.533999,165.524668 367.695,165.195 L367.718,165.195 L367.718,166 L368.6955,166 Z M374.3305,162.458 L370.915,162.458 C370.930333,162.227999 370.980166,162.011418 371.0645,161.80825 C371.148834,161.605082 371.263833,161.426834 371.4095,161.2735 C371.555167,161.120166 371.729582,160.999417 371.93275,160.91125 C372.135918,160.823083 372.363999,160.779 372.617,160.779 C372.862335,160.779 373.086582,160.823083 373.28975,160.91125 C373.492918,160.999417 373.669249,161.118249 373.81875,161.26775 C373.968251,161.417251 374.087083,161.595499 374.17525,161.8025 C374.263417,162.009501 374.315167,162.227999 374.3305,162.458 L374.3305,162.458 Z M375.2735,164.114 L374.3075,164.114 C374.223166,164.505002 374.048751,164.796332 373.78425,164.988 C373.519749,165.179668 373.180502,165.2755 372.7665,165.2755 C372.444498,165.2755 372.164668,165.221834 371.927,165.1145 C371.689332,165.007166 371.493834,164.863418 371.3405,164.68325 C371.187166,164.503082 371.076,164.296085 371.007,164.06225 C370.938,163.828415 370.907333,163.581168 370.915,163.3205 L375.3655,163.3205 C375.380833,162.960165 375.34825,162.580669 375.26775,162.182 C375.18725,161.783331 375.041584,161.415335 374.83075,161.078 C374.619916,160.740665 374.340085,160.462751 373.99125,160.24425 C373.642415,160.025749 373.203503,159.9165 372.6745,159.9165 C372.268165,159.9165 371.894418,159.993166 371.55325,160.1465 C371.212082,160.299834 370.916918,160.514499 370.66775,160.7905 C370.418582,161.066501 370.225001,161.392331 370.087,161.768 C369.948999,162.143669 369.88,162.557664 369.88,163.01 C369.895333,163.462336 369.962416,163.880165 370.08125,164.2635 C370.200084,164.646835 370.378332,164.976499 370.616,165.2525 C370.853668,165.528501 371.146915,165.743166 371.49575,165.8965 C371.844585,166.049834 372.256664,166.1265 372.732,166.1265 C373.40667,166.1265 373.966331,165.957835 374.411,165.6205 C374.855669,165.283165 375.143166,164.781003 375.2735,164.114 L375.2735,164.114 Z M376.343,160.0545 L376.343,166 L377.3205,166 L377.3205,163.355 C377.3205,162.971665 377.358833,162.632418 377.4355,162.33725 C377.512167,162.042082 377.634832,161.791001 377.8035,161.584 C377.972168,161.376999 378.194499,161.219834 378.4705,161.1125 C378.746501,161.005166 379.079998,160.9515 379.471,160.9515 L379.471,159.9165 C378.941997,159.901167 378.505002,160.008499 378.16,160.2385 C377.814998,160.468501 377.523668,160.824998 377.286,161.308 L377.263,161.308 L377.263,160.0545 L376.343,160.0545 Z" id="+-Add-reminder" fill="#7E90A2"></path>
                    <path d="M133.88923,143.5 L152,143.5" id="Line" stroke="#D4DAE0" stroke-linecap="square"></path>
                    <path d="M265.88923,143.5 L284,143.5" id="Line-Copy" stroke="#D4DAE0" stroke-linecap="square"></path>
                    <g id="Group-5" transform="translate(61.000000, 117.000000)" stroke="#13B5EA" stroke-width="1.5" stroke-linecap="round" stroke-linejoin="round">
                        <path d="M4.13261759,20.5627139 C2.20888131,20.5627139 0.636161765,19.2613006 0.636161765,17.6719439 L0.636161765,3.32805615 C0.636161765,1.73869943 2.20888131,0.437286079 4.13261759,0.437286079 L27.8673824,0.437286079 C29.7897475,0.437286079 31.3638382,1.73869943 31.3638382,3.32805615 L31.3638382,17.6719439 C31.3638382,19.2613006 29.7897475,20.5627139 27.8673824,20.5627139 L4.13261759,20.5627139 Z" id="Stroke-1"></path>
                        <polyline id="Stroke-3" points="29.8746272 2.80044598 16.1573678 12.9299245 2.12537278 2.79456116"></polyline>
                    </g>
                    <g id="Group-5-Copy" transform="translate(192.000000, 117.000000)" stroke="#13B5EA" stroke-width="1.5" stroke-linecap="round" stroke-linejoin="round">
                        <path d="M4.13261759,20.5627139 C2.20888131,20.5627139 0.636161765,19.2613006 0.636161765,17.6719439 L0.636161765,3.32805615 C0.636161765,1.73869943 2.20888131,0.437286079 4.13261759,0.437286079 L27.8673824,0.437286079 C29.7897475,0.437286079 31.3638382,1.73869943 31.3638382,3.32805615 L31.3638382,17.6719439 C31.3638382,19.2613006 29.7897475,20.5627139 27.8673824,20.5627139 L4.13261759,20.5627139 Z" id="Stroke-1"></path>
                        <polyline id="Stroke-3" points="29.8746272 2.80044598 16.1573678 12.9299245 2.12537278 2.79456116"></polyline>
                    </g>
                </g>
                <path d="M165.506,160.733 L166.4835,160.733 C166.475833,160.487665 166.50075,160.244251 166.55825,160.00275 C166.61575,159.761249 166.709666,159.544668 166.84,159.353 C166.970334,159.161332 167.137082,159.006084 167.34025,158.88725 C167.543418,158.768416 167.786832,158.709 168.0705,158.709 C168.285168,158.709 168.488332,158.7435 168.68,158.8125 C168.871668,158.8815 169.038416,158.981166 169.18025,159.1115 C169.322084,159.241834 169.435166,159.397082 169.5195,159.57725 C169.603834,159.757418 169.646,159.958666 169.646,160.181 C169.646,160.464668 169.601917,160.713832 169.51375,160.9285 C169.425583,161.143168 169.295251,161.342499 169.12275,161.5265 C168.950249,161.710501 168.733668,161.892582 168.473,162.07275 C168.212332,162.252918 167.909502,162.450332 167.5645,162.665 C167.280832,162.833668 167.008668,163.013832 166.748,163.2055 C166.487332,163.397168 166.253501,163.619499 166.0465,163.8725 C165.839499,164.125501 165.668917,164.422582 165.53475,164.76375 C165.400583,165.104918 165.314334,165.516998 165.276,166 L170.6005,166 L170.6005,165.1375 L166.4145,165.1375 C166.4605,164.884499 166.558249,164.660251 166.70775,164.46475 C166.857251,164.269249 167.037416,164.087168 167.24825,163.9185 C167.459084,163.749832 167.690999,163.590751 167.944,163.44125 C168.197001,163.291749 168.449999,163.140334 168.703,162.987 C168.956001,162.825999 169.201332,162.657334 169.439,162.481 C169.676668,162.304666 169.887499,162.107251 170.0715,161.88875 C170.255501,161.670249 170.403083,161.423001 170.51425,161.147 C170.625417,160.870999 170.681,160.552835 170.681,160.1925 C170.681,159.809165 170.613917,159.471835 170.47975,159.1805 C170.345583,158.889165 170.163501,158.645751 169.9335,158.45025 C169.703499,158.254749 169.433252,158.105251 169.12275,158.00175 C168.812248,157.898249 168.480668,157.8465 168.128,157.8465 C167.698665,157.8465 167.315335,157.919333 166.978,158.065 C166.640665,158.210667 166.358918,158.411915 166.13275,158.66875 C165.906582,158.925585 165.739834,159.230332 165.6325,159.583 C165.525166,159.935668 165.483,160.318998 165.506,160.733 L165.506,160.733 Z M175.488,166 L175.488,157.8465 L174.7405,157.8465 C174.686833,158.153168 174.587167,158.406166 174.4415,158.6055 C174.295833,158.804834 174.117584,158.961999 173.90675,159.077 C173.695916,159.192001 173.460168,159.270583 173.1995,159.31275 C172.938832,159.354917 172.670501,159.376 172.3945,159.376 L172.3945,160.158 L174.5105,160.158 L174.5105,166 L175.488,166 Z M182.434,163.079 C182.434,162.787665 182.464666,162.504001 182.526,162.228 C182.587334,161.951999 182.686999,161.706668 182.825,161.492 C182.963001,161.277332 183.146999,161.104834 183.377,160.9745 C183.607001,160.844166 183.886832,160.779 184.2165,160.779 C184.553835,160.779 184.841332,160.842249 185.079,160.96875 C185.316668,161.095251 185.510249,161.261999 185.65975,161.469 C185.809251,161.676001 185.9185,161.915582 185.9875,162.18775 C186.0565,162.459918 186.091,162.741665 186.091,163.033 C186.091,163.309001 186.058417,163.581165 185.99325,163.8495 C185.928083,164.117835 185.822667,164.357416 185.677,164.56825 C185.531333,164.779084 185.343501,164.949666 185.1135,165.08 C184.883499,165.210334 184.603668,165.2755 184.274,165.2755 C183.959665,165.2755 183.685585,165.214167 183.45175,165.0915 C183.217915,164.968833 183.026251,164.804001 182.87675,164.597 C182.727249,164.389999 182.616084,164.154251 182.54325,163.88975 C182.470416,163.625249 182.434,163.355001 182.434,163.079 L182.434,163.079 Z M187.034,166 L187.034,157.789 L186.0565,157.789 L186.0565,160.848 L186.0335,160.848 C185.926166,160.671666 185.793917,160.524084 185.63675,160.40525 C185.479583,160.286416 185.312834,160.190584 185.1365,160.11775 C184.960166,160.044916 184.783834,159.993167 184.6075,159.9625 C184.431166,159.931833 184.266334,159.9165 184.113,159.9165 C183.660664,159.9165 183.263918,159.998916 182.92275,160.16375 C182.581582,160.328584 182.297918,160.550915 182.07175,160.83075 C181.845582,161.110585 181.676917,161.438331 181.56575,161.814 C181.454583,162.189669 181.399,162.588331 181.399,163.01 C181.399,163.431669 181.456499,163.830331 181.5715,164.206 C181.686501,164.581669 181.857082,164.911332 182.08325,165.195 C182.309418,165.478668 182.593082,165.704832 182.93425,165.8735 C183.275418,166.042168 183.675998,166.1265 184.136,166.1265 C184.550002,166.1265 184.929498,166.053667 185.2745,165.908 C185.619502,165.762333 185.872499,165.524668 186.0335,165.195 L186.0565,165.195 L186.0565,166 L187.034,166 Z M193.8075,165.977 C193.638832,166.076667 193.405001,166.1265 193.106,166.1265 C192.852999,166.1265 192.651751,166.055584 192.50225,165.91375 C192.352749,165.771916 192.278,165.540002 192.278,165.218 C192.009665,165.540002 191.697252,165.771916 191.34075,165.91375 C190.984248,166.055584 190.599002,166.1265 190.185,166.1265 C189.916665,166.1265 189.661751,166.095834 189.42025,166.0345 C189.178749,165.973166 188.969834,165.877334 188.7935,165.747 C188.617166,165.616666 188.477251,165.446084 188.37375,165.23525 C188.270249,165.024416 188.2185,164.769501 188.2185,164.4705 C188.2185,164.133165 188.275999,163.857168 188.391,163.6425 C188.506001,163.427832 188.657416,163.253417 188.84525,163.11925 C189.033084,162.985083 189.247749,162.8835 189.48925,162.8145 C189.730751,162.7455 189.977999,162.688 190.231,162.642 C190.499335,162.588333 190.754249,162.548083 190.99575,162.52125 C191.237251,162.494417 191.449999,162.456084 191.634,162.40625 C191.818001,162.356416 191.963666,162.283584 192.071,162.18775 C192.178334,162.091916 192.232,161.952001 192.232,161.768 C192.232,161.553332 192.19175,161.380834 192.11125,161.2505 C192.03075,161.120166 191.927251,161.0205 191.80075,160.9515 C191.674249,160.8825 191.532417,160.8365 191.37525,160.8135 C191.218083,160.7905 191.062834,160.779 190.9095,160.779 C190.495498,160.779 190.150501,160.857583 189.8745,161.01475 C189.598499,161.171917 189.449,161.468998 189.426,161.906 L188.4485,161.906 C188.463833,161.537998 188.540499,161.227501 188.6785,160.9745 C188.816501,160.721499 189.000499,160.516417 189.2305,160.35925 C189.460501,160.202083 189.723082,160.089 190.01825,160.02 C190.313418,159.951 190.629665,159.9165 190.967,159.9165 C191.235335,159.9165 191.501749,159.935666 191.76625,159.974 C192.030751,160.012334 192.270332,160.090916 192.485,160.20975 C192.699668,160.328584 192.872166,160.495332 193.0025,160.71 C193.132834,160.924668 193.198,161.204498 193.198,161.5495 L193.198,164.6085 C193.198,164.838501 193.211417,165.007166 193.23825,165.1145 C193.265083,165.221834 193.355166,165.2755 193.5085,165.2755 C193.592834,165.2755 193.692499,165.256334 193.8075,165.218 L193.8075,165.977 Z M192.2205,162.9295 C192.097833,163.0215 191.936834,163.088583 191.7375,163.13075 C191.538166,163.172917 191.329251,163.207417 191.11075,163.23425 C190.892249,163.261083 190.671834,163.29175 190.4495,163.32625 C190.227166,163.36075 190.027834,163.416333 189.8515,163.493 C189.675166,163.569667 189.531417,163.678916 189.42025,163.82075 C189.309083,163.962584 189.2535,164.156165 189.2535,164.4015 C189.2535,164.562501 189.286083,164.698583 189.35125,164.80975 C189.416417,164.920917 189.500749,165.011 189.60425,165.08 C189.707751,165.149 189.828499,165.198833 189.9665,165.2295 C190.104501,165.260167 190.250166,165.2755 190.4035,165.2755 C190.725502,165.2755 191.001499,165.231417 191.2315,165.14325 C191.461501,165.055083 191.649333,164.943917 191.795,164.80975 C191.940667,164.675583 192.048,164.529917 192.117,164.37275 C192.186,164.215583 192.2205,164.068001 192.2205,163.93 L192.2205,162.9295 Z M197.0505,166.7935 C196.935499,167.084835 196.822417,167.330166 196.71125,167.5295 C196.600083,167.728834 196.477417,167.891749 196.34325,168.01825 C196.209083,168.144751 196.059584,168.23675 195.89475,168.29425 C195.729916,168.35175 195.540168,168.3805 195.3255,168.3805 C195.210499,168.3805 195.095501,168.372833 194.9805,168.3575 C194.865499,168.342167 194.754334,168.315334 194.647,168.277 L194.647,167.38 C194.731334,167.418334 194.829083,167.450917 194.94025,167.47775 C195.051417,167.504583 195.145333,167.518 195.222,167.518 C195.421334,167.518 195.588083,167.470084 195.72225,167.37425 C195.856417,167.278416 195.958,167.142334 196.027,166.966 L196.4295,165.9655 L194.072,160.0545 L195.176,160.0545 L196.9125,164.919 L196.9355,164.919 L198.603,160.0545 L199.638,160.0545 L197.0505,166.7935 Z M201.064,164.1255 L200.0865,164.1255 C200.101833,164.493502 200.178499,164.805915 200.3165,165.06275 C200.454501,165.319585 200.638499,165.526583 200.8685,165.68375 C201.098501,165.840917 201.362999,165.954 201.662,166.023 C201.961001,166.092 202.275332,166.1265 202.605,166.1265 C202.904001,166.1265 203.204915,166.09775 203.50775,166.04025 C203.810585,165.98275 204.082749,165.881167 204.32425,165.7355 C204.565751,165.589833 204.761249,165.398168 204.91075,165.1605 C205.060251,164.922832 205.135,164.623835 205.135,164.2635 C205.135,163.979832 205.079417,163.742168 204.96825,163.5505 C204.857083,163.358832 204.711418,163.199751 204.53125,163.07325 C204.351082,162.946749 204.144085,162.845167 203.91025,162.7685 C203.676415,162.691833 203.436835,162.626667 203.1915,162.573 C202.961499,162.519333 202.731501,162.467584 202.5015,162.41775 C202.271499,162.367916 202.064501,162.306584 201.8805,162.23375 C201.696499,162.160916 201.545084,162.068917 201.42625,161.95775 C201.307416,161.846583 201.248,161.706668 201.248,161.538 C201.248,161.384666 201.286333,161.260084 201.363,161.16425 C201.439667,161.068416 201.539333,160.99175 201.662,160.93425 C201.784667,160.87675 201.920749,160.8365 202.07025,160.8135 C202.219751,160.7905 202.367333,160.779 202.513,160.779 C202.674001,160.779 202.833083,160.79625 202.99025,160.83075 C203.147417,160.86525 203.291166,160.920833 203.4215,160.9975 C203.551834,161.074167 203.659166,161.175749 203.7435,161.30225 C203.827834,161.428751 203.877667,161.587832 203.893,161.7795 L204.8705,161.7795 C204.8475,161.419165 204.770834,161.118251 204.6405,160.87675 C204.510166,160.635249 204.335751,160.443584 204.11725,160.30175 C203.898749,160.159916 203.647668,160.06025 203.364,160.00275 C203.080332,159.94525 202.769835,159.9165 202.4325,159.9165 C202.171832,159.9165 201.909251,159.949083 201.64475,160.01425 C201.380249,160.079417 201.142584,160.179083 200.93175,160.31325 C200.720916,160.447417 200.548417,160.621832 200.41425,160.8365 C200.280083,161.051168 200.213,161.307999 200.213,161.607 C200.213,161.990335 200.308832,162.289332 200.5005,162.504 C200.692168,162.718668 200.931749,162.885416 201.21925,163.00425 C201.506751,163.123084 201.819165,163.215083 202.1565,163.28025 C202.493835,163.345417 202.806249,163.41825 203.09375,163.49875 C203.381251,163.57925 203.620832,163.684666 203.8125,163.815 C204.004168,163.945334 204.1,164.136999 204.1,164.39 C204.1,164.574001 204.054,164.725416 203.962,164.84425 C203.87,164.963084 203.753084,165.053166 203.61125,165.1145 C203.469416,165.175834 203.314168,165.218 203.1455,165.241 C202.976832,165.264 202.815834,165.2755 202.6625,165.2755 C202.463166,165.2755 202.269584,165.256334 202.08175,165.218 C201.893916,165.179666 201.725251,165.116417 201.57575,165.02825 C201.426249,164.940083 201.3055,164.821251 201.2135,164.67175 C201.1215,164.522249 201.071667,164.340168 201.064,164.1255 L201.064,164.1255 Z M210.126,163.033 C210.126,162.672665 210.173916,162.352585 210.26975,162.07275 C210.365584,161.792915 210.497832,161.557168 210.6665,161.3655 C210.835168,161.173832 211.032582,161.028167 211.25875,160.9285 C211.484918,160.828833 211.724499,160.779 211.9775,160.779 C212.230501,160.779 212.470082,160.828833 212.69625,160.9285 C212.922418,161.028167 213.119832,161.173832 213.2885,161.3655 C213.457168,161.557168 213.589416,161.792915 213.68525,162.07275 C213.781084,162.352585 213.829,162.672665 213.829,163.033 C213.829,163.393335 213.781084,163.713415 213.68525,163.99325 C213.589416,164.273085 213.457168,164.506916 213.2885,164.69475 C213.119832,164.882584 212.922418,165.026333 212.69625,165.126 C212.470082,165.225667 212.230501,165.2755 211.9775,165.2755 C211.724499,165.2755 211.484918,165.225667 211.25875,165.126 C211.032582,165.026333 210.835168,164.882584 210.6665,164.69475 C210.497832,164.506916 210.365584,164.273085 210.26975,163.99325 C210.173916,163.713415 210.126,163.393335 210.126,163.033 L210.126,163.033 Z M209.091,163.033 C209.091,163.470002 209.152333,163.876331 209.275,164.252 C209.397667,164.627669 209.581665,164.955415 209.827,165.23525 C210.072335,165.515085 210.375165,165.733583 210.7355,165.89075 C211.095835,166.047917 211.509831,166.1265 211.9775,166.1265 C212.452836,166.1265 212.868748,166.047917 213.22525,165.89075 C213.581752,165.733583 213.882665,165.515085 214.128,165.23525 C214.373335,164.955415 214.557333,164.627669 214.68,164.252 C214.802667,163.876331 214.864,163.470002 214.864,163.033 C214.864,162.595998 214.802667,162.187752 214.68,161.80825 C214.557333,161.428748 214.373335,161.099085 214.128,160.81925 C213.882665,160.539415 213.581752,160.319001 213.22525,160.158 C212.868748,159.996999 212.452836,159.9165 211.9775,159.9165 C211.509831,159.9165 211.095835,159.996999 210.7355,160.158 C210.375165,160.319001 210.072335,160.539415 209.827,160.81925 C209.581665,161.099085 209.397667,161.428748 209.275,161.80825 C209.152333,162.187752 209.091,162.595998 209.091,163.033 L209.091,163.033 Z M218.6935,166 L220.867,160.0545 L219.8435,160.0545 L218.222,165.011 L218.199,165.011 L216.5315,160.0545 L215.439,160.0545 L217.647,166 L218.6935,166 Z M225.8925,162.458 L222.477,162.458 C222.492333,162.227999 222.542166,162.011418 222.6265,161.80825 C222.710834,161.605082 222.825833,161.426834 222.9715,161.2735 C223.117167,161.120166 223.291582,160.999417 223.49475,160.91125 C223.697918,160.823083 223.925999,160.779 224.179,160.779 C224.424335,160.779 224.648582,160.823083 224.85175,160.91125 C225.054918,160.999417 225.231249,161.118249 225.38075,161.26775 C225.530251,161.417251 225.649083,161.595499 225.73725,161.8025 C225.825417,162.009501 225.877167,162.227999 225.8925,162.458 L225.8925,162.458 Z M226.8355,164.114 L225.8695,164.114 C225.785166,164.505002 225.610751,164.796332 225.34625,164.988 C225.081749,165.179668 224.742502,165.2755 224.3285,165.2755 C224.006498,165.2755 223.726668,165.221834 223.489,165.1145 C223.251332,165.007166 223.055834,164.863418 222.9025,164.68325 C222.749166,164.503082 222.638,164.296085 222.569,164.06225 C222.5,163.828415 222.469333,163.581168 222.477,163.3205 L226.9275,163.3205 C226.942833,162.960165 226.91025,162.580669 226.82975,162.182 C226.74925,161.783331 226.603584,161.415335 226.39275,161.078 C226.181916,160.740665 225.902085,160.462751 225.55325,160.24425 C225.204415,160.025749 224.765503,159.9165 224.2365,159.9165 C223.830165,159.9165 223.456418,159.993166 223.11525,160.1465 C222.774082,160.299834 222.478918,160.514499 222.22975,160.7905 C221.980582,161.066501 221.787001,161.392331 221.649,161.768 C221.510999,162.143669 221.442,162.557664 221.442,163.01 C221.457333,163.462336 221.524416,163.880165 221.64325,164.2635 C221.762084,164.646835 221.940332,164.976499 222.178,165.2525 C222.415668,165.528501 222.708915,165.743166 223.05775,165.8965 C223.406585,166.049834 223.818664,166.1265 224.294,166.1265 C224.96867,166.1265 225.528331,165.957835 225.973,165.6205 C226.417669,165.283165 226.705166,164.781003 226.8355,164.114 L226.8355,164.114 Z M227.905,160.0545 L227.905,166 L228.8825,166 L228.8825,163.355 C228.8825,162.971665 228.920833,162.632418 228.9975,162.33725 C229.074167,162.042082 229.196832,161.791001 229.3655,161.584 C229.534168,161.376999 229.756499,161.219834 230.0325,161.1125 C230.308501,161.005166 230.641998,160.9515 231.033,160.9515 L231.033,159.9165 C230.503997,159.901167 230.067002,160.008499 229.722,160.2385 C229.376998,160.468501 229.085668,160.824998 228.848,161.308 L228.825,161.308 L228.825,160.0545 L227.905,160.0545 Z M232.482,163.079 C232.482,162.787665 232.512666,162.504001 232.574,162.228 C232.635334,161.951999 232.734999,161.706668 232.873,161.492 C233.011001,161.277332 233.194999,161.104834 233.425,160.9745 C233.655001,160.844166 233.934832,160.779 234.2645,160.779 C234.601835,160.779 234.889332,160.842249 235.127,160.96875 C235.364668,161.095251 235.558249,161.261999 235.70775,161.469 C235.857251,161.676001 235.9665,161.915582 236.0355,162.18775 C236.1045,162.459918 236.139,162.741665 236.139,163.033 C236.139,163.309001 236.106417,163.581165 236.04125,163.8495 C235.976083,164.117835 235.870667,164.357416 235.725,164.56825 C235.579333,164.779084 235.391501,164.949666 235.1615,165.08 C234.931499,165.210334 234.651668,165.2755 234.322,165.2755 C234.007665,165.2755 233.733585,165.214167 233.49975,165.0915 C233.265915,164.968833 233.074251,164.804001 232.92475,164.597 C232.775249,164.389999 232.664084,164.154251 232.59125,163.88975 C232.518416,163.625249 232.482,163.355001 232.482,163.079 L232.482,163.079 Z M237.082,166 L237.082,157.789 L236.1045,157.789 L236.1045,160.848 L236.0815,160.848 C235.974166,160.671666 235.841917,160.524084 235.68475,160.40525 C235.527583,160.286416 235.360834,160.190584 235.1845,160.11775 C235.008166,160.044916 234.831834,159.993167 234.6555,159.9625 C234.479166,159.931833 234.314334,159.9165 234.161,159.9165 C233.708664,159.9165 233.311918,159.998916 232.97075,160.16375 C232.629582,160.328584 232.345918,160.550915 232.11975,160.83075 C231.893582,161.110585 231.724917,161.438331 231.61375,161.814 C231.502583,162.189669 231.447,162.588331 231.447,163.01 C231.447,163.431669 231.504499,163.830331 231.6195,164.206 C231.734501,164.581669 231.905082,164.911332 232.13125,165.195 C232.357418,165.478668 232.641082,165.704832 232.98225,165.8735 C233.323418,166.042168 233.723998,166.1265 234.184,166.1265 C234.598002,166.1265 234.977498,166.053667 235.3225,165.908 C235.667502,165.762333 235.920499,165.524668 236.0815,165.195 L236.1045,165.195 L236.1045,166 L237.082,166 Z M243.5105,166 L243.5105,160.0545 L242.533,160.0545 L242.533,163.4125 C242.533,163.680835 242.496584,163.928082 242.42375,164.15425 C242.350916,164.380418 242.241667,164.577832 242.096,164.7465 C241.950333,164.915168 241.768251,165.0455 241.54975,165.1375 C241.331249,165.2295 241.072501,165.2755 240.7735,165.2755 C240.397831,165.2755 240.102668,165.168168 239.888,164.9535 C239.673332,164.738832 239.566,164.447502 239.566,164.0795 L239.566,160.0545 L238.5885,160.0545 L238.5885,163.9645 C238.5885,164.286502 238.621083,164.579749 238.68625,164.84425 C238.751417,165.108751 238.864499,165.336832 239.0255,165.5285 C239.186501,165.720168 239.397332,165.867749 239.658,165.97125 C239.918668,166.074751 240.244498,166.1265 240.6355,166.1265 C241.072502,166.1265 241.451998,166.040251 241.774,165.86775 C242.096002,165.695249 242.360499,165.425002 242.5675,165.057 L242.5905,165.057 L242.5905,166 L243.5105,166 Z M249.111,162.458 L245.6955,162.458 C245.710833,162.227999 245.760666,162.011418 245.845,161.80825 C245.929334,161.605082 246.044333,161.426834 246.19,161.2735 C246.335667,161.120166 246.510082,160.999417 246.71325,160.91125 C246.916418,160.823083 247.144499,160.779 247.3975,160.779 C247.642835,160.779 247.867082,160.823083 248.07025,160.91125 C248.273418,160.999417 248.449749,161.118249 248.59925,161.26775 C248.748751,161.417251 248.867583,161.595499 248.95575,161.8025 C249.043917,162.009501 249.095667,162.227999 249.111,162.458 L249.111,162.458 Z M250.054,164.114 L249.088,164.114 C249.003666,164.505002 248.829251,164.796332 248.56475,164.988 C248.300249,165.179668 247.961002,165.2755 247.547,165.2755 C247.224998,165.2755 246.945168,165.221834 246.7075,165.1145 C246.469832,165.007166 246.274334,164.863418 246.121,164.68325 C245.967666,164.503082 245.8565,164.296085 245.7875,164.06225 C245.7185,163.828415 245.687833,163.581168 245.6955,163.3205 L250.146,163.3205 C250.161333,162.960165 250.12875,162.580669 250.04825,162.182 C249.96775,161.783331 249.822084,161.415335 249.61125,161.078 C249.400416,160.740665 249.120585,160.462751 248.77175,160.24425 C248.422915,160.025749 247.984003,159.9165 247.455,159.9165 C247.048665,159.9165 246.674918,159.993166 246.33375,160.1465 C245.992582,160.299834 245.697418,160.514499 245.44825,160.7905 C245.199082,161.066501 245.005501,161.392331 244.8675,161.768 C244.729499,162.143669 244.6605,162.557664 244.6605,163.01 C244.675833,163.462336 244.742916,163.880165 244.86175,164.2635 C244.980584,164.646835 245.158832,164.976499 245.3965,165.2525 C245.634168,165.528501 245.927415,165.743166 246.27625,165.8965 C246.625085,166.049834 247.037164,166.1265 247.5125,166.1265 C248.18717,166.1265 248.746831,165.957835 249.1915,165.6205 C249.636169,165.283165 249.923666,164.781003 250.054,164.114 L250.054,164.114 Z" id="21-days-overdue" fill="#7E90A2"></path>
                <path d="M41.8535,158.824 L41.8535,157.9845 L36.575,157.9845 L36.575,158.9045 L40.853,158.9045 C40.4236645,159.356836 40.0230852,159.851331 39.65125,160.388 C39.2794148,160.924669 38.9516681,161.493914 38.668,162.09575 C38.3843319,162.697586 38.1524176,163.326247 37.97225,163.98175 C37.7920824,164.637253 37.6790002,165.309997 37.633,166 L38.7255,166 C38.7638335,165.363663 38.8711658,164.70817 39.0475,164.0335 C39.2238342,163.35883 39.4519153,162.703337 39.73175,162.067 C40.0115847,161.430663 40.3316649,160.832669 40.692,160.273 C41.0523351,159.713331 41.4394979,159.230335 41.8535,158.824 L41.8535,158.824 Z M47.04,163.079 C47.04,162.787665 47.0706664,162.504001 47.132,162.228 C47.1933336,161.951999 47.2929993,161.706668 47.431,161.492 C47.5690007,161.277332 47.7529989,161.104834 47.983,160.9745 C48.2130011,160.844166 48.4928317,160.779 48.8225,160.779 C49.159835,160.779 49.4473321,160.842249 49.685,160.96875 C49.9226679,161.095251 50.1162493,161.261999 50.26575,161.469 C50.4152507,161.676001 50.5244997,161.915582 50.5935,162.18775 C50.6625003,162.459918 50.697,162.741665 50.697,163.033 C50.697,163.309001 50.664417,163.581165 50.59925,163.8495 C50.534083,164.117835 50.4286674,164.357416 50.283,164.56825 C50.1373326,164.779084 49.9495011,164.949666 49.7195,165.08 C49.4894989,165.210334 49.2096683,165.2755 48.88,165.2755 C48.5656651,165.2755 48.2915845,165.214167 48.05775,165.0915 C47.8239155,164.968833 47.6322507,164.804001 47.48275,164.597 C47.3332493,164.389999 47.2220837,164.154251 47.14925,163.88975 C47.0764163,163.625249 47.04,163.355001 47.04,163.079 L47.04,163.079 Z M51.64,166 L51.64,157.789 L50.6625,157.789 L50.6625,160.848 L50.6395,160.848 C50.5321661,160.671666 50.3999175,160.524084 50.24275,160.40525 C50.0855825,160.286416 49.9188342,160.190584 49.7425,160.11775 C49.5661658,160.044916 49.3898342,159.993167 49.2135,159.9625 C49.0371658,159.931833 48.8723341,159.9165 48.719,159.9165 C48.2666644,159.9165 47.8699184,159.998916 47.52875,160.16375 C47.1875816,160.328584 46.9039178,160.550915 46.67775,160.83075 C46.4515822,161.110585 46.2829172,161.438331 46.17175,161.814 C46.0605828,162.189669 46.005,162.588331 46.005,163.01 C46.005,163.431669 46.0624994,163.830331 46.1775,164.206 C46.2925006,164.581669 46.4630822,164.911332 46.68925,165.195 C46.9154178,165.478668 47.1990816,165.704832 47.54025,165.8735 C47.8814184,166.042168 48.2819977,166.1265 48.742,166.1265 C49.1560021,166.1265 49.5354983,166.053667 49.8805,165.908 C50.2255017,165.762333 50.4784992,165.524668 50.6395,165.195 L50.6625,165.195 L50.6625,166 L51.64,166 Z M58.4135,165.977 C58.2448325,166.076667 58.0110015,166.1265 57.712,166.1265 C57.4589987,166.1265 57.2577507,166.055584 57.10825,165.91375 C56.9587493,165.771916 56.884,165.540002 56.884,165.218 C56.6156653,165.540002 56.3032518,165.771916 55.94675,165.91375 C55.5902482,166.055584 55.2050021,166.1265 54.791,166.1265 C54.5226653,166.1265 54.2677512,166.095834 54.02625,166.0345 C53.7847488,165.973166 53.5758342,165.877334 53.3995,165.747 C53.2231658,165.616666 53.0832505,165.446084 52.97975,165.23525 C52.8762495,165.024416 52.8245,164.769501 52.8245,164.4705 C52.8245,164.133165 52.8819994,163.857168 52.997,163.6425 C53.1120006,163.427832 53.2634157,163.253417 53.45125,163.11925 C53.6390843,162.985083 53.8537488,162.8835 54.09525,162.8145 C54.3367512,162.7455 54.5839987,162.688 54.837,162.642 C55.1053347,162.588333 55.3602488,162.548083 55.60175,162.52125 C55.8432512,162.494417 56.0559991,162.456084 56.24,162.40625 C56.4240009,162.356416 56.5696661,162.283584 56.677,162.18775 C56.7843339,162.091916 56.838,161.952001 56.838,161.768 C56.838,161.553332 56.7977504,161.380834 56.71725,161.2505 C56.6367496,161.120166 56.5332506,161.0205 56.40675,160.9515 C56.2802494,160.8825 56.1384175,160.8365 55.98125,160.8135 C55.8240825,160.7905 55.6688341,160.779 55.5155,160.779 C55.1014979,160.779 54.7565014,160.857583 54.4805,161.01475 C54.2044986,161.171917 54.0550001,161.468998 54.032,161.906 L53.0545,161.906 C53.0698334,161.537998 53.1464993,161.227501 53.2845,160.9745 C53.4225007,160.721499 53.6064988,160.516417 53.8365,160.35925 C54.0665012,160.202083 54.3290819,160.089 54.62425,160.02 C54.9194181,159.951 55.235665,159.9165 55.573,159.9165 C55.8413347,159.9165 56.1077487,159.935666 56.37225,159.974 C56.6367513,160.012334 56.8763323,160.090916 57.091,160.20975 C57.3056677,160.328584 57.478166,160.495332 57.6085,160.71 C57.738834,160.924668 57.804,161.204498 57.804,161.5495 L57.804,164.6085 C57.804,164.838501 57.8174165,165.007166 57.84425,165.1145 C57.8710835,165.221834 57.9611659,165.2755 58.1145,165.2755 C58.1988338,165.2755 58.2984994,165.256334 58.4135,165.218 L58.4135,165.977 Z M56.8265,162.9295 C56.7038327,163.0215 56.5428343,163.088583 56.3435,163.13075 C56.1441657,163.172917 55.9352511,163.207417 55.71675,163.23425 C55.4982489,163.261083 55.2778344,163.29175 55.0555,163.32625 C54.8331656,163.36075 54.6338342,163.416333 54.4575,163.493 C54.2811658,163.569667 54.1374172,163.678916 54.02625,163.82075 C53.9150828,163.962584 53.8595,164.156165 53.8595,164.4015 C53.8595,164.562501 53.892083,164.698583 53.95725,164.80975 C54.022417,164.920917 54.1067495,165.011 54.21025,165.08 C54.3137505,165.149 54.4344993,165.198833 54.5725,165.2295 C54.7105007,165.260167 54.8561659,165.2755 55.0095,165.2755 C55.3315016,165.2755 55.6074988,165.231417 55.8375,165.14325 C56.0675011,165.055083 56.2553326,164.943917 56.401,164.80975 C56.5466674,164.675583 56.6539997,164.529917 56.723,164.37275 C56.7920003,164.215583 56.8265,164.068001 56.8265,163.93 L56.8265,162.9295 Z M61.6565,166.7935 C61.5414994,167.084835 61.4284172,167.330166 61.31725,167.5295 C61.2060828,167.728834 61.0834173,167.891749 60.94925,168.01825 C60.8150827,168.144751 60.6655842,168.23675 60.50075,168.29425 C60.3359158,168.35175 60.1461677,168.3805 59.9315,168.3805 C59.8164994,168.3805 59.7015006,168.372833 59.5865,168.3575 C59.4714994,168.342167 59.3603339,168.315334 59.253,168.277 L59.253,167.38 C59.3373338,167.418334 59.4350828,167.450917 59.54625,167.47775 C59.6574172,167.504583 59.751333,167.518 59.828,167.518 C60.0273343,167.518 60.1940827,167.470084 60.32825,167.37425 C60.4624173,167.278416 60.5639997,167.142334 60.633,166.966 L61.0355,165.9655 L58.678,160.0545 L59.782,160.0545 L61.5185,164.919 L61.5415,164.919 L63.209,160.0545 L64.244,160.0545 L61.6565,166.7935 Z M65.67,164.1255 L64.6925,164.1255 C64.7078334,164.493502 64.7844993,164.805915 64.9225,165.06275 C65.0605007,165.319585 65.2444989,165.526583 65.4745,165.68375 C65.7045011,165.840917 65.9689985,165.954 66.268,166.023 C66.5670015,166.092 66.8813317,166.1265 67.211,166.1265 C67.5100015,166.1265 67.8109152,166.09775 68.11375,166.04025 C68.4165848,165.98275 68.6887488,165.881167 68.93025,165.7355 C69.1717512,165.589833 69.3672493,165.398168 69.51675,165.1605 C69.6662507,164.922832 69.741,164.623835 69.741,164.2635 C69.741,163.979832 69.6854172,163.742168 69.57425,163.5505 C69.4630828,163.358832 69.3174176,163.199751 69.13725,163.07325 C68.9570824,162.946749 68.7500845,162.845167 68.51625,162.7685 C68.2824155,162.691833 68.0428346,162.626667 67.7975,162.573 C67.5674988,162.519333 67.3375011,162.467584 67.1075,162.41775 C66.8774989,162.367916 66.6705009,162.306584 66.4865,162.23375 C66.3024991,162.160916 66.1510839,162.068917 66.03225,161.95775 C65.9134161,161.846583 65.854,161.706668 65.854,161.538 C65.854,161.384666 65.8923329,161.260084 65.969,161.16425 C66.0456671,161.068416 66.1453327,160.99175 66.268,160.93425 C66.3906673,160.87675 66.5267493,160.8365 66.67625,160.8135 C66.8257507,160.7905 66.9733326,160.779 67.119,160.779 C67.2800008,160.779 67.4390825,160.79625 67.59625,160.83075 C67.7534175,160.86525 67.897166,160.920833 68.0275,160.9975 C68.157834,161.074167 68.2651662,161.175749 68.3495,161.30225 C68.4338338,161.428751 68.4836666,161.587832 68.499,161.7795 L69.4765,161.7795 C69.4534999,161.419165 69.376834,161.118251 69.2465,160.87675 C69.116166,160.635249 68.9417511,160.443584 68.72325,160.30175 C68.5047489,160.159916 68.2536681,160.06025 67.97,160.00275 C67.6863319,159.94525 67.375835,159.9165 67.0385,159.9165 C66.777832,159.9165 66.5152513,159.949083 66.25075,160.01425 C65.9862487,160.079417 65.7485844,160.179083 65.53775,160.31325 C65.3269156,160.447417 65.1544173,160.621832 65.02025,160.8365 C64.8860827,161.051168 64.819,161.307999 64.819,161.607 C64.819,161.990335 64.9148324,162.289332 65.1065,162.504 C65.2981676,162.718668 65.5377486,162.885416 65.82525,163.00425 C66.1127514,163.123084 66.425165,163.215083 66.7625,163.28025 C67.099835,163.345417 67.4122486,163.41825 67.69975,163.49875 C67.9872514,163.57925 68.2268324,163.684666 68.4185,163.815 C68.6101676,163.945334 68.706,164.136999 68.706,164.39 C68.706,164.574001 68.6600005,164.725416 68.568,164.84425 C68.4759995,164.963084 68.359084,165.053166 68.21725,165.1145 C68.075416,165.175834 67.9201675,165.218 67.7515,165.241 C67.5828325,165.264 67.4218341,165.2755 67.2685,165.2755 C67.0691657,165.2755 66.8755843,165.256334 66.68775,165.218 C66.4999157,165.179666 66.3312507,165.116417 66.18175,165.02825 C66.0322493,164.940083 65.9115005,164.821251 65.8195,164.67175 C65.7274995,164.522249 65.6776667,164.340168 65.67,164.1255 L65.67,164.1255 Z M74.732,163.033 C74.732,162.672665 74.7799162,162.352585 74.87575,162.07275 C74.9715838,161.792915 75.1038325,161.557168 75.2725,161.3655 C75.4411675,161.173832 75.6385822,161.028167 75.86475,160.9285 C76.0909178,160.828833 76.3304987,160.779 76.5835,160.779 C76.8365013,160.779 77.0760822,160.828833 77.30225,160.9285 C77.5284178,161.028167 77.7258325,161.173832 77.8945,161.3655 C78.0631675,161.557168 78.1954162,161.792915 78.29125,162.07275 C78.3870838,162.352585 78.435,162.672665 78.435,163.033 C78.435,163.393335 78.3870838,163.713415 78.29125,163.99325 C78.1954162,164.273085 78.0631675,164.506916 77.8945,164.69475 C77.7258325,164.882584 77.5284178,165.026333 77.30225,165.126 C77.0760822,165.225667 76.8365013,165.2755 76.5835,165.2755 C76.3304987,165.2755 76.0909178,165.225667 75.86475,165.126 C75.6385822,165.026333 75.4411675,164.882584 75.2725,164.69475 C75.1038325,164.506916 74.9715838,164.273085 74.87575,163.99325 C74.7799162,163.713415 74.732,163.393335 74.732,163.033 L74.732,163.033 Z M73.697,163.033 C73.697,163.470002 73.7583327,163.876331 73.881,164.252 C74.0036673,164.627669 74.1876654,164.955415 74.433,165.23525 C74.6783346,165.515085 74.9811649,165.733583 75.3415,165.89075 C75.7018351,166.047917 76.115831,166.1265 76.5835,166.1265 C77.0588357,166.1265 77.4747482,166.047917 77.83125,165.89075 C78.1877518,165.733583 78.4886654,165.515085 78.734,165.23525 C78.9793346,164.955415 79.1633327,164.627669 79.286,164.252 C79.4086673,163.876331 79.47,163.470002 79.47,163.033 C79.47,162.595998 79.4086673,162.187752 79.286,161.80825 C79.1633327,161.428748 78.9793346,161.099085 78.734,160.81925 C78.4886654,160.539415 78.1877518,160.319001 77.83125,160.158 C77.4747482,159.996999 77.0588357,159.9165 76.5835,159.9165 C76.115831,159.9165 75.7018351,159.996999 75.3415,160.158 C74.9811649,160.319001 74.6783346,160.539415 74.433,160.81925 C74.1876654,161.099085 74.0036673,161.428748 73.881,161.80825 C73.7583327,162.187752 73.697,162.595998 73.697,163.033 L73.697,163.033 Z M83.2995,166 L85.473,160.0545 L84.4495,160.0545 L82.828,165.011 L82.805,165.011 L81.1375,160.0545 L80.045,160.0545 L82.253,166 L83.2995,166 Z M90.4985,162.458 L87.083,162.458 C87.0983334,162.227999 87.1481662,162.011418 87.2325,161.80825 C87.3168338,161.605082 87.4318326,161.426834 87.5775,161.2735 C87.7231674,161.120166 87.8975823,160.999417 88.10075,160.91125 C88.3039177,160.823083 88.5319987,160.779 88.785,160.779 C89.0303346,160.779 89.2545823,160.823083 89.45775,160.91125 C89.6609177,160.999417 89.8372493,161.118249 89.98675,161.26775 C90.1362507,161.417251 90.2550829,161.595499 90.34325,161.8025 C90.4314171,162.009501 90.4831666,162.227999 90.4985,162.458 L90.4985,162.458 Z M91.4415,164.114 L90.4755,164.114 C90.3911662,164.505002 90.2167513,164.796332 89.95225,164.988 C89.6877487,165.179668 89.3485021,165.2755 88.9345,165.2755 C88.6124984,165.2755 88.3326679,165.221834 88.095,165.1145 C87.8573321,165.007166 87.6618341,164.863418 87.5085,164.68325 C87.3551659,164.503082 87.2440003,164.296085 87.175,164.06225 C87.1059997,163.828415 87.0753333,163.581168 87.083,163.3205 L91.5335,163.3205 C91.5488334,162.960165 91.5162504,162.580669 91.43575,162.182 C91.3552496,161.783331 91.2095844,161.415335 90.99875,161.078 C90.7879156,160.740665 90.5080851,160.462751 90.15925,160.24425 C89.8104149,160.025749 89.3715026,159.9165 88.8425,159.9165 C88.4361646,159.9165 88.0624184,159.993166 87.72125,160.1465 C87.3800816,160.299834 87.0849179,160.514499 86.83575,160.7905 C86.5865821,161.066501 86.3930007,161.392331 86.255,161.768 C86.1169993,162.143669 86.048,162.557664 86.048,163.01 C86.0633334,163.462336 86.1304161,163.880165 86.24925,164.2635 C86.3680839,164.646835 86.5463321,164.976499 86.784,165.2525 C87.0216679,165.528501 87.3149149,165.743166 87.66375,165.8965 C88.0125851,166.049834 88.4246643,166.1265 88.9,166.1265 C89.57467,166.1265 90.1343311,165.957835 90.579,165.6205 C91.0236689,165.283165 91.311166,164.781003 91.4415,164.114 L91.4415,164.114 Z M92.511,160.0545 L92.511,166 L93.4885,166 L93.4885,163.355 C93.4885,162.971665 93.5268329,162.632418 93.6035,162.33725 C93.6801671,162.042082 93.8028325,161.791001 93.9715,161.584 C94.1401675,161.376999 94.3624986,161.219834 94.6385,161.1125 C94.9145014,161.005166 95.247998,160.9515 95.639,160.9515 L95.639,159.9165 C95.1099974,159.901167 94.6730017,160.008499 94.328,160.2385 C93.9829983,160.468501 93.6916679,160.824998 93.454,161.308 L93.431,161.308 L93.431,160.0545 L92.511,160.0545 Z M97.088,163.079 C97.088,162.787665 97.1186664,162.504001 97.18,162.228 C97.2413336,161.951999 97.3409993,161.706668 97.479,161.492 C97.6170007,161.277332 97.8009989,161.104834 98.031,160.9745 C98.2610011,160.844166 98.5408317,160.779 98.8705,160.779 C99.207835,160.779 99.4953321,160.842249 99.733,160.96875 C99.9706679,161.095251 100.164249,161.261999 100.31375,161.469 C100.463251,161.676001 100.5725,161.915582 100.6415,162.18775 C100.7105,162.459918 100.745,162.741665 100.745,163.033 C100.745,163.309001 100.712417,163.581165 100.64725,163.8495 C100.582083,164.117835 100.476667,164.357416 100.331,164.56825 C100.185333,164.779084 99.9975011,164.949666 99.7675,165.08 C99.5374989,165.210334 99.2576683,165.2755 98.928,165.2755 C98.6136651,165.2755 98.3395845,165.214167 98.10575,165.0915 C97.8719155,164.968833 97.6802507,164.804001 97.53075,164.597 C97.3812493,164.389999 97.2700837,164.154251 97.19725,163.88975 C97.1244163,163.625249 97.088,163.355001 97.088,163.079 L97.088,163.079 Z M101.688,166 L101.688,157.789 L100.7105,157.789 L100.7105,160.848 L100.6875,160.848 C100.580166,160.671666 100.447917,160.524084 100.29075,160.40525 C100.133583,160.286416 99.9668342,160.190584 99.7905,160.11775 C99.6141658,160.044916 99.4378342,159.993167 99.2615,159.9625 C99.0851658,159.931833 98.9203341,159.9165 98.767,159.9165 C98.3146644,159.9165 97.9179184,159.998916 97.57675,160.16375 C97.2355816,160.328584 96.9519178,160.550915 96.72575,160.83075 C96.4995822,161.110585 96.3309172,161.438331 96.21975,161.814 C96.1085828,162.189669 96.053,162.588331 96.053,163.01 C96.053,163.431669 96.1104994,163.830331 96.2255,164.206 C96.3405006,164.581669 96.5110822,164.911332 96.73725,165.195 C96.9634178,165.478668 97.2470816,165.704832 97.58825,165.8735 C97.9294184,166.042168 98.3299977,166.1265 98.79,166.1265 C99.2040021,166.1265 99.5834983,166.053667 99.9285,165.908 C100.273502,165.762333 100.526499,165.524668 100.6875,165.195 L100.7105,165.195 L100.7105,166 L101.688,166 Z M108.1165,166 L108.1165,160.0545 L107.139,160.0545 L107.139,163.4125 C107.139,163.680835 107.102584,163.928082 107.02975,164.15425 C106.956916,164.380418 106.847667,164.577832 106.702,164.7465 C106.556333,164.915168 106.374251,165.0455 106.15575,165.1375 C105.937249,165.2295 105.678501,165.2755 105.3795,165.2755 C105.003831,165.2755 104.708668,165.168168 104.494,164.9535 C104.279332,164.738832 104.172,164.447502 104.172,164.0795 L104.172,160.0545 L103.1945,160.0545 L103.1945,163.9645 C103.1945,164.286502 103.227083,164.579749 103.29225,164.84425 C103.357417,165.108751 103.470499,165.336832 103.6315,165.5285 C103.792501,165.720168 104.003332,165.867749 104.264,165.97125 C104.524668,166.074751 104.850498,166.1265 105.2415,166.1265 C105.678502,166.1265 106.057998,166.040251 106.38,165.86775 C106.702002,165.695249 106.966499,165.425002 107.1735,165.057 L107.1965,165.057 L107.1965,166 L108.1165,166 Z M113.717,162.458 L110.3015,162.458 C110.316833,162.227999 110.366666,162.011418 110.451,161.80825 C110.535334,161.605082 110.650333,161.426834 110.796,161.2735 C110.941667,161.120166 111.116082,160.999417 111.31925,160.91125 C111.522418,160.823083 111.750499,160.779 112.0035,160.779 C112.248835,160.779 112.473082,160.823083 112.67625,160.91125 C112.879418,160.999417 113.055749,161.118249 113.20525,161.26775 C113.354751,161.417251 113.473583,161.595499 113.56175,161.8025 C113.649917,162.009501 113.701667,162.227999 113.717,162.458 L113.717,162.458 Z M114.66,164.114 L113.694,164.114 C113.609666,164.505002 113.435251,164.796332 113.17075,164.988 C112.906249,165.179668 112.567002,165.2755 112.153,165.2755 C111.830998,165.2755 111.551168,165.221834 111.3135,165.1145 C111.075832,165.007166 110.880334,164.863418 110.727,164.68325 C110.573666,164.503082 110.4625,164.296085 110.3935,164.06225 C110.3245,163.828415 110.293833,163.581168 110.3015,163.3205 L114.752,163.3205 C114.767333,162.960165 114.73475,162.580669 114.65425,162.182 C114.57375,161.783331 114.428084,161.415335 114.21725,161.078 C114.006416,160.740665 113.726585,160.462751 113.37775,160.24425 C113.028915,160.025749 112.590003,159.9165 112.061,159.9165 C111.654665,159.9165 111.280918,159.993166 110.93975,160.1465 C110.598582,160.299834 110.303418,160.514499 110.05425,160.7905 C109.805082,161.066501 109.611501,161.392331 109.4735,161.768 C109.335499,162.143669 109.2665,162.557664 109.2665,163.01 C109.281833,163.462336 109.348916,163.880165 109.46775,164.2635 C109.586584,164.646835 109.764832,164.976499 110.0025,165.2525 C110.240168,165.528501 110.533415,165.743166 110.88225,165.8965 C111.231085,166.049834 111.643164,166.1265 112.1185,166.1265 C112.79317,166.1265 113.352831,165.957835 113.7975,165.6205 C114.242169,165.283165 114.529666,164.781003 114.66,164.114 L114.66,164.114 Z" id="7-days-overdue" fill="#7E90A2"></path>
            </g>
        </g>
    </g>
</svg>